<?xml version="1.0" standalone="no"?>
<!DOCTYPE svg PUBLIC "-//W3C//DTD SVG 20010904//EN"
 "http://www.w3.org/TR/2001/REC-SVG-20010904/DTD/svg10.dtd">
<svg version="1.0" xmlns="http://www.w3.org/2000/svg"
 width="950.000000pt" height="950.000000pt" viewBox="0 0 950.000000 950.000000"
 preserveAspectRatio="xMidYMid meet">
<metadata>
Created by potrace 1.14, written by Peter Selinger 2001-2017
</metadata>
<g transform="translate(0.000000,950.000000) scale(0.100000,-0.100000)"
fill="#000000" stroke="none">
<path d="M0 8520 l0 -980 21 0 c12 0 36 -15 54 -33 75 -75 48 -205 -41 -195
l-34 4 0 -2810 0 -2810 43 84 c23 47 63 117 88 155 52 78 209 342 209 350 0 3
-20 5 -45 5 -25 0 -45 2 -45 5 0 3 11 23 25 45 24 38 27 40 78 40 51 0 53 1
79 44 16 24 28 46 28 50 0 3 -20 6 -45 6 -25 0 -45 3 -45 8 1 19 19 27 60 27
52 0 63 8 115 89 l36 56 -51 0 c-48 0 -50 1 -40 20 9 16 21 20 65 20 l54 0 51
88 c79 135 80 135 55 126 -10 -4 -15 0 -15 11 0 9 -5 13 -10 10 -10 -6 -96 39
-137 72 -38 32 -73 94 -73 132 0 36 49 209 75 266 7 17 26 68 41 115 15 47 35
103 44 125 10 22 28 72 41 110 13 39 31 82 41 97 10 14 18 30 18 34 0 4 12 25
26 45 29 43 83 81 151 108 l47 18 23 -34 c18 -26 22 -43 18 -66 -3 -18 -6 -43
-7 -57 0 -14 -7 -68 -15 -120 -34 -216 -49 -365 -40 -377 6 -8 33 -13 67 -13
57 0 59 1 89 43 17 23 35 47 41 54 20 23 10 33 -35 33 -25 0 -45 4 -45 8 0 22
39 42 81 42 24 0 49 4 55 8 16 11 64 97 64 115 0 10 4 17 9 17 5 0 12 18 16
40 4 22 12 40 18 40 8 0 8 3 -1 9 -11 6 -10 14 2 42 8 19 22 55 32 81 9 26 20
45 25 42 5 -3 9 4 9 16 0 11 7 37 15 56 12 29 18 34 35 29 19 -6 26 4 20 30
-1 5 2 7 6 3 4 -5 14 1 21 12 11 15 21 18 40 14 21 -6 24 -4 18 7 -7 11 -5 11
10 -1 13 -11 19 -12 22 -3 2 7 11 9 18 7 27 -11 95 102 287 476 194 376 299
602 337 723 10 34 28 86 40 115 11 28 19 52 16 52 -2 0 9 31 25 69 53 130 148
425 166 516 9 50 39 180 65 290 27 110 53 217 58 238 6 28 4 57 -11 110 -48
183 -46 467 5 657 17 60 15 70 -13 70 -16 0 -18 6 -14 33 5 27 2 34 -18 42
-13 6 -22 16 -20 23 1 7 -6 12 -16 12 -10 0 -27 7 -38 16 -18 14 -18 15 5 4
13 -7 26 -8 30 -3 8 11 91 13 91 1 0 -4 11 -8 25 -8 14 0 25 5 25 10 0 6 -9
10 -20 10 -18 0 -19 3 -10 20 6 11 20 20 31 20 14 0 26 13 39 42 19 43 18 58
-3 58 -7 0 -13 9 -13 20 0 12 5 19 13 16 7 -3 16 0 20 7 5 7 17 17 28 24 11 6
19 17 17 24 -2 8 -4 21 -5 31 -1 9 -4 16 -7 16 -9 -2 -65 14 -75 22 -5 4 -23
10 -40 14 -16 4 -32 11 -35 16 -5 7 -117 37 -176 47 -29 5 -34 1 -68 -54 -20
-32 -39 -69 -42 -83 -11 -52 -23 -70 -47 -70 -13 0 -29 -6 -35 -12 -14 -14
-75 -20 -66 -7 3 5 1 9 -5 9 -5 0 -13 -4 -16 -10 -3 -5 -22 -10 -40 -10 -27 0
-33 3 -28 16 3 8 15 14 27 13 49 -3 53 0 53 44 1 25 17 80 41 137 31 74 37 96
26 98 -21 5 35 102 59 102 9 0 18 6 19 13 0 6 2 17 2 23 2 18 66 74 85 74 9 0
25 7 35 15 19 14 19 15 -8 15 l-27 0 21 31 c14 19 28 28 37 25 9 -4 31 4 51
16 35 22 35 22 11 28 -13 3 -82 3 -154 0 -128 -6 -131 -7 -220 -50 l-90 -44
50 -4 50 -3 -34 -15 c-18 -8 -56 -14 -85 -14 -46 -1 -86 -16 -86 -34 0 -3 10
-6 23 -6 22 -1 22 -1 -3 -15 -14 -8 -41 -14 -61 -15 -23 0 -42 -7 -54 -20 -17
-19 -17 -20 1 -20 16 -1 15 -3 -6 -15 -14 -8 -20 -15 -15 -15 6 0 -11 -11 -37
-24 -26 -12 -53 -27 -60 -33 -7 -6 -26 -13 -43 -17 -35 -9 -77 -45 -68 -59 3
-6 1 -7 -5 -3 -14 8 -16 6 -136 -109 -137 -132 -252 -265 -267 -307 -16 -48
-33 -49 -25 -3 6 31 5 35 -15 35 -15 0 -19 4 -15 16 3 9 6 18 6 20 0 2 11 4
24 4 19 0 27 10 44 50 18 43 19 50 5 50 -13 0 -13 3 -3 15 7 8 18 15 24 15 6
1 31 33 56 73 151 242 423 500 642 609 196 97 386 142 575 135 65 -3 132 -8
150 -12 22 -5 38 -2 55 9 12 9 17 16 11 16 -22 0 8 85 53 150 77 111 94 128
94 90 0 -18 7 -20 55 -20 l55 0 0 85 c0 74 2 85 18 87 9 0 22 2 27 3 6 2 15 3
20 4 6 1 -1 7 -14 12 l-24 9 24 26 c47 51 109 86 164 93 31 4 56 4 58 -2 1 -5
41 -30 88 -55 129 -71 219 -125 219 -134 0 -12 41 -31 84 -39 37 -7 46 -3 155
69 139 91 207 126 366 185 408 151 619 182 1292 192 442 6 523 -3 823 -100
208 -67 505 -201 636 -288 198 -131 482 -395 587 -547 17 -25 34 -46 39 -48 4
-2 8 -10 8 -18 0 -8 3 -14 8 -14 4 0 20 -21 36 -48 16 -26 39 -58 52 -72 12
-14 25 -35 29 -47 3 -13 13 -23 21 -23 8 0 17 -8 21 -17 3 -10 13 -26 21 -35
10 -13 12 -21 4 -30 -7 -9 -1 -35 24 -93 18 -44 31 -86 28 -94 -4 -11 -2 -12
11 -1 13 11 15 10 10 -1 -3 -8 4 -39 16 -69 12 -30 32 -91 46 -135 14 -44 31
-83 37 -87 7 -5 7 -8 0 -8 -7 0 -7 -13 0 -45 6 -25 13 -45 16 -45 3 0 4 -16 2
-35 -2 -19 0 -35 6 -35 13 0 23 -38 11 -46 -8 -5 -6 -66 6 -154 20 -154 12
-541 -14 -650 -6 -25 -21 -90 -32 -145 -12 -55 -28 -112 -35 -127 -18 -35 -18
-38 4 -38 24 0 80 -47 98 -82 8 -15 14 -43 14 -63 0 -19 3 -35 8 -35 12 0 40
-82 52 -155 6 -38 20 -113 30 -165 11 -52 25 -138 33 -190 13 -98 13 -99 -23
-290 -6 -30 -13 -113 -16 -185 -2 -71 -13 -202 -24 -290 -29 -232 -29 -230 -5
-227 11 1 44 0 73 -4 45 -5 60 -12 98 -48 25 -25 44 -52 44 -64 0 -19 4 -21
32 -16 54 9 57 11 60 51 2 30 7 38 23 38 18 0 20 -8 23 -72 l3 -73 39 0 c38 0
40 2 40 29 0 21 6 32 21 36 11 4 23 5 26 2 2 -3 1 -98 -3 -211 l-7 -206 -48 0
c-44 0 -49 2 -49 23 0 13 -5 28 -11 34 -7 7 -10 43 -8 97 4 84 3 86 -18 86
-27 0 -27 3 -7 -51 8 -24 13 -59 10 -76 -3 -19 4 -56 15 -88 15 -43 20 -87 22
-183 1 -70 -2 -137 -6 -150 -7 -18 -4 -24 15 -31 15 -7 18 -10 7 -10 -16 -1
-29 -20 -29 -42 0 -5 10 -14 23 -19 22 -9 22 -9 1 -9 -35 -1 -41 -51 -6 -51
13 0 12 -3 -4 -15 -16 -12 -17 -14 -2 -15 22 0 35 -39 17 -52 -9 -5 -4 -7 16
-3 26 5 27 4 8 -4 -26 -12 -31 -46 -8 -55 18 -7 45 3 45 16 0 5 5 6 11 3 6 -4
8 -13 5 -21 -4 -10 2 -14 20 -14 14 0 22 4 19 10 -3 6 1 10 9 10 9 0 16 -4 16
-9 0 -5 19 -11 43 -14 119 -15 463 -86 667 -137 54 -13 164 -30 199 -30 l31 0
0 3135 0 3135 -4750 0 -4750 0 0 -980z m7647 -142 c39 -40 84 -89 100 -108 15
-19 31 -36 36 -38 4 -2 7 -9 7 -15 0 -6 7 -18 15 -27 34 -38 132 -205 191
-328 61 -125 100 -222 130 -320 19 -61 1 -43 -25 25 -12 32 -31 76 -41 98 -11
22 -35 81 -56 130 -20 50 -40 95 -44 100 -4 6 -27 46 -51 90 -79 148 -182 290
-291 399 -32 32 -58 60 -58 62 0 15 26 -6 87 -68z m203 -504 c0 -8 -19 -13
-24 -6 -3 5 1 9 9 9 8 0 15 -2 15 -3z m58 -5 c-11 -6 -24 -6 -34 -1 -12 7 -8
9 18 10 26 1 30 -1 16 -9z m-5578 -109 c0 -5 -7 -7 -15 -4 -8 4 -15 8 -15 10
0 2 7 4 15 4 8 0 15 -4 15 -10z m146 -41 c16 -8 29 -21 29 -29 0 -20 -93 -18
-153 3 -31 11 -40 11 -32 3 5 -7 6 -17 2 -21 -4 -5 -1 -5 7 0 9 5 18 3 25 -6
6 -8 22 -20 36 -27 l25 -12 -30 4 c-28 4 -28 3 -10 -10 10 -8 25 -14 32 -14 7
0 13 -5 13 -12 0 -14 -228 -4 -243 11 -6 6 -2 8 13 4 16 -4 21 -3 16 5 -5 8 2
12 21 12 15 0 35 5 43 10 11 7 11 10 2 10 -7 0 -10 5 -7 11 4 6 -2 13 -14 16
-17 4 -19 8 -10 19 9 11 8 14 -4 14 -9 0 -18 4 -21 9 -7 11 44 9 63 -3 9 -6
12 -5 7 2 -14 22 143 23 190 1z m-319 -105 c-3 -3 -12 -4 -19 -1 -8 3 -5 6 6
6 11 1 17 -2 13 -5z m6 -21 c-7 -2 -19 -2 -25 0 -7 3 -2 5 12 5 14 0 19 -2 13
-5z m-1063 -83 c0 -16 -23 -60 -32 -60 -9 0 -10 16 -2 48 6 21 34 32 34 12z
m1074 -29 c34 -13 66 -42 66 -60 0 -23 -31 -51 -57 -51 -48 0 -84 75 -51 108
14 14 11 14 42 3z m173 3 c-3 -3 -12 -4 -19 -1 -8 3 -5 6 6 6 11 1 17 -2 13
-5z m98 -1 c-11 -3 -24 -9 -29 -14 -6 -5 -16 -9 -23 -9 -11 0 -11 3 -1 15 7 8
27 14 43 13 21 0 24 -2 10 -5z m5715 -58 c0 -5 -5 -3 -10 5 -5 8 -10 20 -10
25 0 6 5 3 10 -5 5 -8 10 -19 10 -25z m50 -46 c0 -11 -4 -19 -10 -19 -5 0 -10
-7 -10 -15 0 -8 8 -15 18 -15 11 0 13 -3 5 -8 -17 -11 9 -129 33 -147 11 -8
14 -14 7 -15 -14 0 -13 -12 10 -155 21 -122 30 -211 22 -204 -6 7 -26 109 -45
229 -5 36 -25 128 -45 205 -43 169 -43 174 -10 167 16 -3 25 -11 25 -23z m89
-662 c1 -16 -3 -26 -9 -22 -5 3 -10 27 -9 53 1 38 2 42 9 22 4 -14 8 -38 9
-53z m6 -93 c6 -49 2 -75 -9 -63 -7 8 -12 119 -5 119 3 0 10 -25 14 -56z m4
-171 c0 -54 -4 -87 -7 -73 -6 22 -7 45 -3 143 1 15 3 27 6 27 3 0 5 -44 4 -97z
m198 -1980 c-3 -10 -5 -2 -5 17 0 19 2 27 5 18 2 -10 2 -26 0 -35z m-8272
-1149 c-48 -74 -63 28 -17 122 l27 56 3 -77 c2 -57 -1 -83 -13 -101z"/>
<path d="M2270 7686 c0 -2 7 -6 15 -10 8 -3 15 -1 15 4 0 6 -7 10 -15 10 -8 0
-15 -2 -15 -4z"/>
<path d="M5205 8899 c-189 -8 -425 -44 -425 -64 0 -3 226 -5 503 -5 285 0 496
4 487 9 -32 19 -190 50 -280 56 -52 4 -102 8 -110 9 -8 1 -87 -1 -175 -5z"/>
<path d="M3486 8815 c10 -8 28 -14 39 -14 20 0 20 0 1 14 -11 8 -29 15 -40 15
-20 0 -20 0 0 -15z"/>
<path d="M4900 8802 l-274 -2 -111 -42 c-60 -22 -117 -49 -125 -58 -9 -9 -21
-15 -28 -12 -8 2 -36 -10 -63 -27 -28 -17 -55 -31 -60 -31 -5 0 -9 -4 -9 -10
0 -5 -9 -10 -20 -10 -11 0 -23 -7 -27 -16 -3 -8 -12 -13 -19 -10 -8 3 -13 2
-12 -2 4 -20 -15 -39 -34 -34 -15 4 -19 2 -14 -7 11 -17 -22 -40 -56 -41 -16
0 -28 -4 -28 -10 0 -5 12 -10 26 -10 15 0 23 -4 19 -10 -4 -6 -15 -8 -26 -5
-14 5 -17 3 -13 -9 3 -9 1 -16 -5 -16 -6 0 -17 -13 -26 -30 -9 -16 -20 -30
-26 -30 -6 0 -17 -7 -25 -15 -8 -8 -20 -12 -28 -9 -8 3 -20 -11 -31 -36 -10
-22 -21 -40 -25 -40 -3 0 -16 -9 -28 -20 -16 -16 -21 -28 -16 -48 5 -25 4 -26
-10 -8 -17 21 -36 14 -36 -15 0 -11 -7 -22 -15 -25 -8 -4 -12 -10 -9 -15 6
-11 -11 -10 -46 1 -22 7 -22 8 -4 9 22 1 67 30 47 31 -6 0 -14 -4 -18 -10 -4
-6 -15 -6 -33 1 -23 9 -29 7 -45 -15 -10 -14 -24 -23 -32 -19 -9 3 -18 -4 -24
-20 -5 -14 -15 -28 -20 -32 -6 -3 -11 -15 -11 -25 0 -10 -6 -21 -12 -23 -8 -4
-7 -6 3 -6 19 -1 48 -31 30 -31 -6 0 -11 5 -11 10 0 6 -10 10 -22 9 -15 0 -18
-3 -8 -6 20 -8 40 -29 40 -43 0 -7 -6 -8 -19 0 -25 13 -28 13 -34 -4 -4 -9 0
-12 13 -9 10 3 21 0 24 -6 7 -11 -6 -43 -17 -42 -18 2 -21 0 -10 -7 8 -5 8
-13 -2 -32 -13 -24 -13 -24 -10 10 2 19 4 38 4 43 1 4 8 7 16 7 8 0 15 5 15
10 0 6 -3 10 -7 10 -13 -1 -40 -24 -41 -35 -7 -80 -16 -107 -36 -114 -11 -5
-20 -11 -18 -15 5 -15 1 -27 -8 -21 -6 4 -8 11 -5 16 4 5 -1 9 -9 9 -20 0 -20
-14 -1 -34 10 -10 12 -17 4 -21 -6 -4 -16 -2 -22 4 -21 21 -27 11 -22 -34 4
-46 -10 -64 -18 -22 -2 12 -5 1 -6 -25 0 -27 -5 -48 -11 -48 -5 0 -10 5 -10
11 0 5 -5 7 -11 4 -6 -4 -8 -9 -5 -12 6 -6 -31 -43 -44 -43 -13 0 -90 -106
-90 -125 0 -8 -5 -15 -11 -15 -6 0 -9 -7 -5 -15 3 -10 -6 -23 -29 -38 -28 -17
-35 -29 -35 -54 0 -17 -4 -35 -10 -38 -5 -3 -10 -22 -10 -41 0 -19 -4 -34 -10
-34 -5 0 -10 5 -10 10 0 24 -18 7 -25 -22 -7 -33 -7 -33 -15 -8 -7 21 -8 22
-9 5 -1 -11 -6 -27 -11 -35 -12 -19 -1 57 12 82 6 13 5 16 -6 12 -11 -4 -13 0
-9 15 3 12 8 21 12 21 3 0 5 27 5 60 -1 38 3 60 10 60 6 0 4 5 -4 10 -8 5 -10
10 -5 11 6 0 -6 7 -25 14 -19 7 -28 14 -20 14 13 1 13 2 0 11 -10 6 -11 10 -2
10 6 0 12 7 12 15 0 8 9 15 19 15 28 0 52 11 46 20 -3 5 -1 11 4 15 18 10 0
35 -25 35 -17 0 -24 6 -24 20 0 11 -5 20 -11 20 -5 0 -7 5 -4 10 4 6 1 17 -5
25 -14 17 -3 20 19 6 8 -5 11 -16 8 -25 -5 -13 1 -16 28 -16 29 0 35 4 35 20
0 12 10 24 23 30 18 7 19 9 3 9 -13 1 -17 6 -13 21 4 16 0 20 -18 20 -13 0
-27 -5 -31 -11 -3 -6 -18 -8 -33 -5 -23 6 -24 5 -8 -7 9 -8 17 -18 17 -22 0
-4 -6 -3 -13 3 -13 11 -41 11 -53 0 -3 -4 4 -12 16 -18 l21 -11 -20 -18 c-12
-10 -21 -23 -21 -29 0 -6 -6 -13 -12 -15 -10 -4 -10 -6 -1 -6 20 -1 49 -35 45
-53 -2 -10 -10 -14 -23 -11 -20 6 -73 -40 -61 -52 4 -3 0 -10 -7 -14 -9 -6 -1
-11 26 -16 40 -6 41 -7 36 -43 -3 -20 -12 -45 -21 -54 -9 -11 -11 -18 -4 -18
15 0 4 -31 -17 -48 -14 -11 -14 -14 -1 -22 10 -7 11 -10 3 -10 -7 0 -13 -9
-13 -21 0 -11 -4 -18 -9 -15 -5 3 -11 -5 -13 -19 -3 -13 -1 -22 3 -19 5 3 9 0
9 -5 0 -6 -4 -11 -9 -11 -5 0 -8 -11 -7 -25 2 -13 -2 -23 -7 -22 -7 1 -15 -36
-22 -90 -6 -51 -16 -98 -23 -105 -9 -9 -12 -8 -12 5 0 9 3 17 8 17 4 0 7 26 8
57 0 36 -2 50 -7 38 -4 -11 -8 -35 -8 -53 -1 -18 -8 -49 -16 -70 -11 -24 -14
-50 -10 -74 5 -25 3 -38 -4 -38 -8 0 -11 -29 -10 -87 1 -123 0 -135 -11 -128
-9 6 -28 65 -36 115 -5 29 -12 64 -20 100 -8 35 -7 284 0 345 12 94 26 170 41
228 18 68 18 77 6 77 -5 0 -14 -19 -19 -42 -6 -24 -18 -71 -26 -105 -20 -80
-46 -277 -46 -351 0 -31 -7 -88 -16 -127 -9 -38 -17 -92 -20 -120 l-4 -50 18
53 c10 29 22 53 28 53 12 1 32 -75 33 -124 1 -21 -7 -63 -18 -95 -10 -31 -42
-131 -70 -222 -29 -91 -58 -184 -66 -207 -9 -28 -10 -45 -3 -49 5 -3 13 -2 18
2 9 10 89 236 96 273 3 14 8 29 12 35 3 6 8 20 9 31 2 11 11 40 20 65 10 25
16 48 15 53 -1 4 2 7 8 7 5 0 21 -22 34 -48 14 -27 37 -57 52 -66 24 -16 26
-22 21 -60 -4 -22 -11 -59 -16 -81 -27 -107 -43 -174 -52 -214 -5 -24 -16 -58
-24 -75 -29 -57 -61 -236 -43 -236 5 0 6 -5 3 -10 -4 -6 -1 -17 5 -25 9 -11 9
-15 1 -15 -6 0 -11 -5 -11 -11 0 -5 5 -7 10 -4 5 3 10 2 10 -4 0 -5 -5 -11
-11 -13 -5 -2 -13 -39 -16 -83 -3 -44 -11 -83 -16 -87 -6 -3 -12 -30 -13 -60
-2 -29 -10 -143 -19 -253 -12 -164 -13 -218 -3 -300 6 -55 10 -136 8 -180 -6
-133 5 -422 17 -455 2 -8 8 -39 12 -68 7 -45 5 -55 -10 -65 -19 -12 -15 -37 6
-37 19 0 26 -14 41 -79 11 -52 26 -108 59 -221 7 -25 26 -82 43 -126 21 -55
28 -84 21 -91 -7 -7 -3 -18 14 -34 33 -33 77 -113 77 -141 0 -14 11 -34 25
-46 14 -12 25 -30 25 -40 0 -11 9 -27 21 -38 12 -10 30 -37 40 -59 11 -22 36
-59 57 -82 112 -125 104 -104 87 -238 -3 -22 -8 -75 -11 -117 -7 -77 -7 -78
-32 -71 -20 5 -23 3 -17 -8 7 -12 6 -12 -7 -1 -11 9 -18 10 -23 2 -11 -18 4
-28 36 -23 34 5 33 14 13 -110 -8 -53 -30 -45 -68 25 -17 31 -43 68 -58 82
-16 14 -25 31 -22 39 3 8 1 18 -4 21 -11 7 -105 194 -138 276 -12 30 -31 59
-42 64 -29 14 -65 98 -58 134 6 24 3 32 -18 45 -13 9 -27 26 -31 37 -3 11 -13
20 -21 20 -10 0 -12 5 -8 13 5 8 2 7 -10 -2 -9 -8 -13 -17 -8 -20 5 -3 15 -16
21 -29 8 -14 18 -21 27 -18 8 3 14 1 14 -4 0 -6 -6 -10 -12 -11 -7 0 -4 -4 7
-9 15 -7 16 -9 4 -9 -9 -1 -19 -11 -23 -23 -8 -33 -7 -40 4 -33 6 3 10 -1 10
-10 0 -9 -4 -13 -10 -10 -5 3 -10 -1 -10 -9 0 -16 20 -18 30 -4 3 4 11 -6 17
-22 9 -23 8 -28 -3 -23 -10 3 -12 0 -8 -10 3 -9 12 -13 19 -11 14 6 60 -14 52
-23 -3 -2 -15 0 -26 7 -12 6 -21 8 -21 6 0 -3 13 -12 29 -20 16 -9 31 -22 35
-31 3 -9 2 -13 -4 -10 -6 3 -7 -1 -4 -9 3 -9 14 -16 23 -17 10 0 11 -2 4 -6
-7 -2 -13 -11 -13 -19 0 -8 6 -11 15 -8 9 4 16 -3 20 -20 3 -14 8 -38 11 -53
4 -19 8 -23 13 -14 7 10 9 10 13 -1 8 -20 -37 -21 -53 -2 -10 13 -10 17 2 25
11 7 8 9 -10 9 -16 0 -21 4 -17 15 3 8 1 15 -4 15 -5 0 -7 8 -4 18 5 14 4 15
-5 2 -10 -13 -13 -13 -26 4 -8 11 -15 29 -15 41 0 28 -10 37 -26 24 -10 -8
-15 -3 -23 23 -6 23 -10 27 -11 13 -2 -17 -3 -16 -9 5 -5 14 -4 29 1 35 4 5 8
15 8 23 0 12 -3 12 -15 2 -13 -11 -14 -10 -9 6 6 15 2 14 -18 -6 -14 -14 -28
-36 -30 -50 l-3 -25 -7 23 c-4 13 -1 28 6 35 7 6 11 21 9 32 -2 11 -1 14 3 8
8 -17 24 -16 24 1 0 7 -10 17 -22 21 -15 4 -18 8 -10 12 9 3 6 11 -10 26 -13
11 -16 18 -8 15 8 -3 31 1 50 8 19 7 27 13 17 13 -23 1 -56 31 -35 31 8 0 19
-5 26 -12 9 -9 12 -9 12 0 0 7 -4 12 -10 12 -5 0 -10 9 -10 20 0 11 -4 20 -10
20 -5 0 -7 -7 -4 -15 4 -9 1 -15 -7 -15 -15 0 -49 20 -35 20 5 0 3 7 -4 15
-19 23 -55 19 -57 -6 -1 -12 -5 -24 -8 -27 -11 -11 -25 23 -20 46 4 18 1 25
-14 29 -12 3 -18 10 -15 15 8 12 -25 48 -44 48 -12 0 -12 -2 -1 -17 13 -15 11
-16 -16 -10 l-30 6 28 -13 c15 -6 24 -16 20 -21 -5 -4 0 -5 10 -2 9 4 17 2 17
-3 0 -5 8 -11 17 -13 14 -4 12 -5 -4 -6 -19 -1 -23 -7 -23 -31 0 -16 5 -30 10
-30 6 0 10 -8 11 -17 0 -10 3 -13 5 -6 3 7 12 9 19 6 12 -4 12 -7 0 -20 -18
-18 -10 -109 12 -131 7 -7 13 -18 13 -23 0 -5 6 -9 14 -9 13 0 30 -34 27 -54
-1 -4 4 -15 10 -22 9 -11 9 -18 1 -26 -7 -7 -12 -17 -12 -23 0 -5 5 -3 10 5 9
13 11 13 20 0 9 -14 14 -45 13 -77 -1 -7 3 -13 8 -13 5 0 6 -12 3 -27 -5 -19
-2 -30 10 -39 23 -16 32 -64 12 -64 -8 0 -13 -7 -11 -17 2 -10 4 -21 4 -25 1
-4 9 -5 19 -1 9 3 14 2 9 -2 -4 -5 0 -17 10 -27 18 -20 11 -23 -17 -8 -16 8
-18 8 -14 -5 4 -8 17 -15 30 -15 25 0 33 -15 12 -23 -10 -3 -10 -9 0 -27 14
-22 13 -23 -17 -17 -26 6 -31 4 -31 -13 0 -11 -7 -20 -15 -20 -8 0 -15 -4 -15
-10 0 -5 6 -10 14 -10 15 0 26 -30 26 -75 0 -35 -8 -49 -32 -58 -24 -9 -23
-28 2 -34 11 -3 20 -11 20 -19 0 -7 14 -21 31 -29 20 -11 28 -20 22 -28 -5 -7
-7 -53 -4 -104 l6 -92 -25 6 c-23 5 -23 4 -8 -8 20 -16 14 -59 -8 -59 -8 0
-11 -6 -8 -15 4 -8 1 -15 -4 -15 -24 0 -31 -53 -41 -305 -5 -126 -15 -238 -24
-280 -9 -38 -23 -106 -31 -150 -16 -87 -56 -237 -65 -245 -3 -3 -7 -27 -7 -54
-1 -27 -7 -52 -14 -56 -9 -6 -8 -9 6 -13 16 -4 17 -5 2 -6 -10 0 -18 -5 -18
-11 0 -5 -8 -10 -19 -10 -16 0 -17 4 -7 41 9 33 8 46 -6 69 -11 20 -13 30 -5
33 6 2 3 6 -7 10 -10 4 -15 3 -11 -3 9 -15 -5 -12 -21 5 -11 10 -36 15 -84 15
-60 0 -71 -3 -84 -22 -9 -12 -16 -30 -16 -40 0 -17 -1 -17 -17 0 -48 50 -56
64 -59 109 -30 462 -36 618 -30 883 4 157 8 302 10 323 3 26 0 37 -10 38 -8 1
-18 3 -24 4 -5 1 -14 3 -18 4 -5 0 -8 11 -6 23 1 13 3 28 3 34 1 6 15 14 31
17 29 6 30 9 30 57 0 33 -4 50 -12 50 -9 0 -8 4 2 10 12 8 12 10 -5 10 -19 1
-19 1 -2 14 10 8 20 31 22 52 3 21 7 39 9 42 2 2 0 17 -4 33 -8 27 -7 29 17
23 16 -4 29 -2 35 7 8 11 9 11 5 -2 -3 -9 0 -32 6 -51 9 -26 17 -34 32 -32 18
3 20 -1 17 -36 -3 -32 -1 -40 13 -40 9 0 19 9 22 20 3 11 9 20 13 20 8 0 3
110 -5 118 -2 3 -11 0 -19 -7 -11 -9 -15 -7 -18 14 -5 22 -3 23 10 13 11 -9
14 -9 9 -1 -4 6 -2 33 4 60 12 52 22 95 37 160 5 23 5 40 1 37 -5 -3 -9 -1 -9
4 0 6 7 12 15 16 8 3 15 13 15 21 0 9 5 13 10 10 5 -3 10 2 10 12 0 11 5 24
12 31 9 9 3 15 -23 26 -20 9 -27 15 -16 16 10 0 16 4 12 10 -3 5 -12 7 -19 4
-8 -3 -16 4 -19 16 -8 29 1 48 24 55 11 4 17 10 14 15 -3 5 5 12 17 16 40 12
50 29 28 49 -11 10 -26 15 -35 11 -10 -4 -5 9 14 33 l31 39 -31 20 -31 19 24
19 c20 17 23 26 20 72 -3 40 -8 52 -20 53 -14 0 -13 2 3 9 l20 9 -20 0 c-11 1
-27 6 -35 11 -12 7 -8 12 17 22 31 14 32 15 18 42 -8 16 -15 38 -15 49 0 11
-4 34 -10 51 -5 17 -12 44 -15 59 -3 15 -10 25 -15 22 -5 -3 -18 12 -27 35
-18 41 -27 48 -38 30 -3 -5 -1 -10 4 -10 6 0 11 -5 11 -11 0 -6 -8 -8 -19 -4
-34 11 -53 -6 -66 -60 -2 -5 -3 -23 -4 -39 -1 -23 -4 -26 -15 -17 -11 9 -18 4
-35 -24 -11 -20 -21 -40 -21 -44 0 -23 -43 -59 -77 -65 -21 -3 -51 -13 -67
-21 -15 -8 -37 -15 -47 -15 -11 0 -19 -4 -19 -9 0 -5 20 -9 45 -8 25 0 48 -2
51 -6 9 -9 -5 -57 -17 -57 -6 0 -21 -12 -34 -28 -23 -28 -89 -52 -143 -52 -19
0 -23 -3 -13 -9 7 -5 10 -14 7 -20 -5 -7 3 -11 23 -11 34 0 61 -9 61 -20 0 -9
-109 -32 -120 -25 -4 3 -14 -2 -21 -11 -10 -13 -10 -17 2 -25 8 -5 24 -9 37
-9 15 0 22 -6 22 -19 0 -21 -26 -31 -87 -31 -23 0 -45 -5 -48 -11 -4 -6 -12
-8 -19 -6 -7 3 -11 -7 -10 -27 1 -17 -6 -36 -15 -42 -13 -10 -13 -14 -2 -28 7
-8 21 -18 32 -21 23 -8 25 -33 4 -41 -8 -4 -15 -16 -15 -29 0 -12 -11 -31 -25
-41 -14 -10 -25 -24 -25 -30 0 -6 -11 -23 -25 -38 -14 -15 -25 -35 -25 -44 -1
-20 -34 -62 -49 -62 -6 0 -11 -7 -11 -15 0 -8 -9 -19 -20 -25 -11 -6 -20 -17
-20 -25 0 -11 -13 -15 -54 -15 -34 0 -58 -5 -65 -14 -10 -12 -5 -16 33 -21 36
-6 46 -11 46 -26 0 -11 -5 -19 -11 -19 -14 0 -8 -92 6 -102 6 -5 6 -8 -2 -8
-18 0 -28 22 -24 55 3 25 1 27 -13 16 -8 -7 -19 -10 -25 -7 -14 9 -61 -15 -61
-30 0 -7 -9 -19 -19 -26 -13 -9 -17 -19 -12 -27 6 -9 11 -10 15 -2 4 6 13 11
19 11 7 0 4 -5 -6 -11 -9 -6 -15 -16 -11 -22 3 -7 -4 -1 -15 12 -12 13 -24 21
-28 17 -8 -7 22 -33 56 -47 19 -8 21 -12 11 -24 -7 -8 -19 -15 -27 -15 -7 0
-16 -7 -19 -15 -4 -10 -20 -15 -44 -15 -28 0 -45 -8 -69 -31 -35 -33 -36 -55
-3 -52 30 4 45 -22 39 -65 -4 -37 -45 -92 -67 -92 -6 0 -10 -18 -10 -40 0 -22
-4 -40 -10 -40 -5 0 -20 -18 -32 -40 -13 -22 -29 -40 -35 -40 -8 0 -13 -13
-13 -29 0 -16 -6 -36 -13 -43 -8 -7 -17 -30 -21 -51 -4 -22 -13 -37 -21 -37
-8 0 -17 -12 -21 -27 -3 -16 -15 -46 -25 -69 -10 -22 -19 -46 -19 -52 0 -7 -4
-12 -10 -12 -13 0 -40 -67 -34 -84 8 -20 -12 -28 -26 -11 -18 21 -30 18 -31
-7 0 -15 -2 -18 -6 -8 -16 45 -115 240 -128 250 -29 24 -33 11 -45 -150 -5
-63 -9 -118 -9 -122 -1 -3 -9 -9 -19 -11 -16 -4 -16 -5 1 -6 27 -2 22 -41 -5
-42 l-23 0 23 -9 c28 -12 28 -38 0 -50 -21 -8 -22 -9 -3 -10 l20 -1 -20 -9
c-14 -6 -15 -9 -5 -9 22 -1 23 -41 2 -41 -15 0 -15 -2 -2 -10 13 -8 12 -10 -2
-10 -10 0 -18 -7 -18 -15 0 -8 9 -15 19 -15 24 0 17 -40 -8 -41 -12 0 -11 -3
6 -11 39 -19 24 -130 -20 -142 -32 -8 -35 -8 -42 12 -14 43 -127 144 -143 128
-3 -3 -1 -35 4 -71 10 -62 9 -65 -10 -66 -16 0 -17 -2 -6 -7 8 -4 17 -14 18
-22 16 -69 44 -174 57 -209 8 -24 13 -47 10 -51 -3 -5 -1 -11 4 -15 6 -3 8
-12 5 -20 -3 -8 -2 -20 2 -27 9 -14 9 -116 0 -125 -3 -4 -6 -11 -6 -17 0 -6 5
-4 10 4 5 8 10 11 10 5 0 -29 -16 -33 -130 -40 -62 -3 -59 -2 -70 -30 -8 -22
-13 -24 -36 -15 -14 6 -30 7 -36 4 -6 -4 -20 5 -32 19 -11 14 -38 35 -58 46
l-38 21 0 -310 0 -310 751 0 750 0 -7 22 c-19 61 0 179 26 163 17 -11 22 18
10 61 -11 40 -11 46 5 57 12 10 19 33 22 83 4 40 13 79 23 94 24 35 31 58 18
62 -6 2 -2 19 11 43 11 22 21 57 21 77 0 27 4 38 15 38 8 0 15 9 15 21 0 11
-5 17 -10 14 -6 -3 -10 5 -10 19 0 14 5 28 11 32 7 4 8 9 1 13 -7 4 -5 15 4
31 14 23 14 23 9 3 -5 -18 -3 -22 9 -17 11 4 14 19 11 64 -3 45 0 60 11 64 12
4 14 1 9 -14 -4 -11 -2 -20 4 -20 8 0 26 -63 35 -125 1 -5 4 -15 8 -20 3 -6 9
-28 13 -50 4 -22 15 -70 25 -107 19 -70 14 -91 -18 -66 -15 12 -16 11 -3 -5 8
-10 20 -16 27 -13 7 3 15 -2 18 -10 4 -10 2 -12 -6 -8 -7 4 -8 3 -4 -4 4 -7
14 -12 22 -12 8 0 14 -5 14 -11 0 -5 4 -8 9 -5 5 3 11 -3 14 -14 3 -11 1 -20
-4 -20 -5 0 -9 -12 -9 -26 0 -14 -4 -23 -10 -19 -6 3 -10 -1 -10 -9 0 -9 -4
-16 -10 -16 -5 0 -10 -12 -10 -26 0 -14 -4 -23 -10 -19 -5 3 -10 -3 -10 -14 0
-12 -4 -21 -9 -21 -5 0 -12 -11 -15 -25 -4 -14 -11 -25 -16 -25 -6 0 -10 -10
-10 -22 0 -16 -3 -19 -9 -10 -8 13 -20 -8 -36 -66 -3 -12 -15 -27 -25 -32 -12
-7 -17 -16 -13 -27 5 -13 2 -15 -11 -10 -14 5 -17 3 -12 -8 3 -9 0 -15 -9 -15
-9 0 -15 -10 -15 -25 l0 -25 1794 0 1794 0 6 33 c16 78 25 169 25 260 1 57 5
97 11 97 6 0 10 5 10 11 0 5 -5 7 -12 3 -8 -5 -9 -2 -4 11 4 11 2 22 -6 27
-10 6 -8 8 5 8 9 0 17 7 17 15 0 9 6 18 14 21 8 3 17 15 21 27 4 12 8 24 10
27 11 27 14 47 17 127 2 50 1 90 -4 87 -4 -3 -5 2 -2 10 7 19 20 21 27 4 3 -7
3 2 0 20 -5 26 -2 32 13 32 14 0 15 3 6 12 -19 19 -14 31 9 25 12 -3 19 -3 16
-1 -2 3 -1 22 4 42 5 23 4 39 -3 43 -7 4 -7 9 1 13 6 4 11 3 11 -2 0 -6 7 -13
16 -16 8 -3 12 -2 9 4 -3 6 -2 10 3 10 5 0 13 -20 19 -44 8 -37 7 -46 -7 -56
-9 -7 -17 -17 -18 -24 -16 -97 -17 -139 -5 -143 18 -7 16 -30 -2 -37 -11 -4
-15 -21 -15 -62 0 -54 3 -60 37 -92 20 -18 52 -40 71 -48 18 -7 31 -18 27 -24
-3 -5 -1 -10 5 -10 6 0 10 -6 9 -12 -5 -31 14 -139 22 -126 6 8 9 -1 9 -27 1
-22 5 -60 11 -85 16 -76 22 -114 21 -137 0 -22 4 -23 83 -23 l83 0 -3 58 c-4
62 10 126 32 143 7 6 13 22 13 36 0 15 4 22 11 17 8 -4 9 0 4 15 -3 11 -2 21
3 21 5 0 15 20 22 45 7 25 17 45 21 45 5 0 8 3 8 7 -5 33 3 43 34 43 18 0 37
4 42 8 13 11 125 3 125 -9 0 -5 -8 -9 -17 -10 -12 -1 -10 -4 7 -9 23 -7 23 -8
-10 -10 -34 -2 -34 -3 -7 -9 27 -6 27 -6 7 -19 -13 -8 -20 -8 -20 -1 0 5 -4 7
-10 4 -5 -3 -10 -28 -10 -54 0 -31 -5 -53 -15 -61 -8 -7 -15 -18 -15 -25 0 -8
-3 -15 -7 -17 -16 -6 -53 -68 -53 -86 0 -11 -12 -31 -26 -46 -15 -14 -22 -26
-15 -26 19 0 12 -22 -9 -27 -11 -3 -20 -12 -20 -19 0 -12 55 -14 325 -14 l325
0 -1 143 c-1 89 -4 129 -9 107 l-7 -35 -2 43 c0 23 3 42 8 42 5 0 8 20 7 44 0
24 -5 42 -9 39 -4 -3 -5 7 -1 21 4 18 2 26 -7 26 -9 1 -7 6 5 15 11 8 16 15
11 15 -5 0 -4 5 2 11 8 8 17 5 32 -10 16 -16 34 -21 72 -21 60 0 89 13 89 40
0 27 6 25 45 -9 37 -32 98 -47 136 -33 13 5 56 7 95 5 63 -5 74 -3 92 15 19
19 22 20 31 5 7 -13 22 -16 72 -14 35 1 69 7 76 13 9 7 13 42 13 114 0 80 3
104 13 104 10 0 14 -16 13 -58 -1 -68 23 -108 93 -156 37 -26 46 -28 98 -22
32 3 89 6 127 5 49 0 73 4 86 16 15 14 18 14 30 0 9 -11 32 -15 80 -15 78 0
80 2 80 88 0 31 4 62 8 68 20 31 158 121 283 185 92 47 144 79 149 93 4 12 6
22 5 24 -3 4 -127 -49 -235 -101 -82 -39 -184 -109 -174 -120 3 -2 -2 -7 -11
-10 -13 -5 -15 6 -16 71 -1 42 -1 104 0 138 3 57 1 62 -34 97 -38 38 -44 40
-106 37 -21 -1 -40 3 -44 9 -3 6 -1 11 4 11 21 0 11 19 -11 23 -22 3 -22 4 -3
12 11 5 26 17 33 27 7 10 19 15 25 11 7 -4 5 1 -2 11 -14 17 -16 17 -29 -1
-14 -17 -14 -17 -8 0 5 15 2 17 -17 12 -18 -5 -17 -3 6 10 32 19 35 30 6 22
-13 -3 -18 -2 -13 3 15 14 64 23 64 11 0 -6 -8 -8 -17 -4 -15 6 -16 4 -6 -9 7
-8 10 -18 6 -21 -3 -4 -2 -7 4 -7 6 0 13 9 16 21 3 12 10 18 17 14 6 -4 9 -14
5 -22 -4 -12 -3 -13 8 -5 14 12 27 7 27 -10 0 -5 -5 -6 -12 -2 -8 5 -9 2 -5
-10 4 -10 7 -22 7 -27 0 -6 9 -7 21 -4 16 6 20 4 13 -6 -6 -11 -5 -12 8 -2 8
7 19 9 23 5 5 -4 5 -1 1 6 -4 6 -2 12 3 12 6 0 11 -6 11 -13 0 -18 116 -70
143 -63 65 18 83 84 35 132 -22 23 -34 26 -101 28 -41 0 -73 4 -70 9 2 4 -4 7
-13 7 -45 0 14 17 67 19 17 1 22 31 5 31 -6 0 -17 9 -24 20 -7 11 -16 20 -21
20 -12 0 -71 59 -71 70 0 5 12 13 28 18 l27 9 -32 7 c-18 4 -38 4 -44 0 -8 -5
-9 -3 -4 6 5 9 2 10 -14 5 -21 -6 -25 3 -24 68 0 9 -4 17 -9 17 -11 0 -10 38
2 45 5 3 10 15 10 26 0 23 25 34 103 43 47 6 56 10 47 21 -8 10 -7 14 7 18 17
4 17 5 1 6 -10 0 -18 6 -18 11 0 6 -21 10 -47 11 -27 0 -57 4 -68 8 -16 7 -8
11 35 20 30 6 66 13 80 15 14 2 7 4 -16 5 -102 3 -140 31 -43 31 31 0 48 4 44
10 -3 6 -21 10 -40 10 -46 0 -71 10 -53 21 11 7 11 9 -1 9 -7 0 -1 10 14 22
22 17 41 22 84 22 39 0 49 2 31 7 l-25 7 28 1 c15 1 27 -4 27 -9 0 -7 22 -10
58 -8 90 5 58 23 -44 24 -49 1 -107 4 -127 8 -36 7 -37 8 -37 51 0 26 5 45 11
45 7 0 10 16 8 44 -3 35 -1 42 11 38 9 -3 5 6 -9 21 -14 15 -23 27 -20 28 2 0
15 2 28 3 13 2 30 10 36 20 7 9 17 16 21 15 43 -8 42 5 -1 26 -42 20 -46 24
-25 25 17 2 20 4 8 7 -15 4 -17 13 -12 66 3 34 6 63 8 64 3 3 93 -115 117
-154 8 -14 22 -21 41 -21 16 1 31 -2 35 -5 3 -4 -6 -7 -21 -7 -26 0 -26 0 -11
-31 21 -40 58 -38 63 4 2 15 -1 27 -7 27 -6 0 -11 5 -11 11 0 6 7 9 15 5 20
-7 19 13 -1 64 -12 30 -22 40 -38 40 -19 0 -28 14 -55 85 -17 46 -38 90 -45
97 -21 22 -36 55 -36 81 0 16 -7 26 -20 30 -14 4 -20 14 -20 35 0 17 5 34 10
37 8 5 7 11 0 20 -7 8 -8 20 -4 26 18 30 -13 345 -39 396 -9 18 -17 50 -17 73
0 27 -5 43 -15 46 -20 8 -19 40 2 48 14 6 13 9 -8 23 -13 9 -25 17 -27 19 -2
1 2 11 9 22 10 17 10 23 -1 37 -11 13 -11 18 -2 24 7 4 10 14 7 22 -7 19 34
39 155 74 25 7 61 21 80 31 19 10 42 17 51 16 9 -2 19 5 23 14 5 13 2 15 -21
10 -21 -5 -24 -4 -13 4 11 7 -17 10 -95 11 -60 0 -140 6 -176 12 l-67 12 4 43
c2 24 0 42 -6 42 -6 0 -9 3 -9 8 1 4 0 10 -1 15 -1 4 -3 12 -4 19 0 7 -12 15
-26 19 -14 4 -18 7 -9 8 12 1 15 8 11 26 -4 23 3 28 77 61 44 20 78 41 75 45
-3 5 1 9 8 9 18 0 108 47 102 53 -7 7 45 18 56 12 6 -3 8 0 5 7 -5 15 110 74
140 71 11 -1 14 1 7 4 -10 4 -9 8 5 18 75 55 -123 -20 -362 -136 -66 -33 -128
-59 -137 -59 -16 0 -78 100 -78 127 0 7 -5 13 -11 13 -8 0 -8 4 -1 13 16 19
40 100 47 152 3 26 8 52 12 58 4 6 0 8 -10 4 -19 -7 -21 3 -10 43 l7 25 7 -30
c6 -28 7 -27 8 12 0 23 -3 43 -7 45 -5 2 -12 29 -16 61 -4 39 -3 56 4 52 7 -4
7 2 1 18 -9 22 -6 27 22 38 18 7 40 21 50 30 13 11 46 18 119 23 119 7 146 21
63 31 -73 10 -215 1 -281 -17 -58 -16 -67 -13 -102 42 l-22 35 2 -54 3 -53
-70 -19 c-38 -10 -96 -23 -129 -29 l-58 -11 -77 79 c-85 89 -81 85 -171 202
-36 47 -67 87 -70 90 -34 31 -86 110 -106 161 -25 61 -26 70 -19 184 7 122
-11 307 -38 399 -9 31 -9 40 1 44 7 2 12 8 12 14 0 13 73 128 82 128 8 0 49
-65 52 -83 1 -6 5 -17 8 -23 9 -13 29 -97 34 -144 12 -93 47 -160 140 -267 36
-42 58 -38 43 6 -9 25 -7 33 16 57 14 15 41 54 60 85 31 49 34 62 29 101 -6
43 17 163 35 181 9 9 116 14 139 6 7 -2 34 -23 60 -47 l47 -43 80 4 c44 2 89
7 100 11 17 6 26 -4 59 -68 52 -99 81 -135 97 -119 9 9 9 18 -1 42 -7 17 -15
31 -19 31 -21 0 -39 90 -27 135 3 11 11 40 17 65 7 25 25 63 41 84 15 21 28
45 28 53 0 7 4 13 9 13 6 0 22 11 37 25 32 29 24 31 -32 8 -36 -15 -43 -23
-53 -62 -22 -82 -151 -181 -234 -181 -60 0 -61 -3 39 205 35 74 56 103 122
168 66 64 85 77 113 78 28 0 31 2 14 9 -11 5 -25 9 -31 9 -20 1 -181 -146
-215 -196 -18 -27 -36 -49 -40 -51 -4 -2 -44 -27 -88 -57 -44 -29 -90 -57
-103 -61 -28 -9 -76 -6 -101 7 -21 12 -13 31 43 99 48 60 100 140 100 156 0
34 -23 14 -95 -81 -84 -114 -96 -121 -194 -118 -54 2 -71 16 -49 40 21 25 118
186 153 257 28 55 34 61 105 93 83 39 243 93 272 93 30 0 108 -22 108 -30 0
-4 -21 -13 -47 -19 -59 -15 -158 -59 -150 -67 3 -3 25 1 49 11 24 9 75 24 114
34 86 22 93 43 24 79 -38 20 -54 23 -102 18 -31 -4 -80 -13 -107 -20 -42 -11
-51 -11 -55 1 -3 7 -1 13 5 13 6 0 7 4 4 10 -3 5 6 51 20 102 40 148 32 163
-29 53 -51 -89 -75 -96 -36 -10 44 96 136 539 128 613 -2 17 -1 32 2 32 3 0 7
72 9 160 2 156 2 160 -18 160 -15 0 -21 -6 -21 -22 0 -13 -2 -84 -5 -158 -2
-74 -4 -153 -4 -175 -1 -121 -119 -641 -151 -660 -5 -3 -7 23 -5 67 12 189 10
319 -4 327 -7 5 -17 28 -22 52 -5 24 -16 76 -25 114 -9 39 -17 89 -17 113 -1
27 -6 42 -15 42 -7 0 -10 5 -6 11 3 6 0 15 -7 20 -12 8 -12 11 1 19 13 9 13
12 -4 21 -15 9 -16 13 -5 20 11 7 11 11 -3 21 -9 7 -22 25 -27 41 -14 35 -43
37 -37 2 3 -14 1 -25 -4 -25 -4 0 -7 -12 -5 -27 1 -16 -2 -31 -9 -35 -8 -6 -7
-10 3 -17 10 -7 11 -13 2 -30 -7 -12 -9 -26 -6 -31 3 -6 2 -10 -3 -10 -6 0 -8
-9 -5 -20 17 -65 -46 -353 -123 -567 -50 -141 -70 -175 -59 -103 4 25 11 47
16 48 5 2 7 8 4 13 -4 5 -1 35 5 66 20 103 41 236 51 323 12 108 16 421 5 523
l-8 77 -48 0 c-71 0 -74 20 -3 22 l58 1 -60 7 -60 7 53 1 54 2 -7 43 c-4 23
-19 76 -34 117 l-26 75 -62 3 c-47 2 -63 7 -63 17 0 11 14 15 56 15 l56 0 -6
28 c-7 28 -13 55 -18 83 -2 8 -9 22 -16 30 -7 8 -31 42 -53 77 l-41 62 -81 1
-82 0 -39 47 -39 47 83 3 c81 3 82 3 65 22 -15 17 -31 20 -107 20 -72 0 -88 3
-88 15 0 12 15 15 75 15 129 0 80 38 -54 42 -57 2 -86 7 -89 16 -3 9 16 12 72
12 49 0 76 4 76 11 0 26 -209 215 -305 277 -38 25 -79 53 -90 63 -11 10 -85
50 -165 90 -127 63 -153 72 -210 75 -101 6 -675 9 -980 6z m-566 -141 c3 -5
-1 -11 -9 -14 -9 -4 -12 -1 -8 9 6 16 10 17 17 5z m-104 -75 c0 -9 -30 -14
-35 -6 -4 6 3 10 14 10 12 0 21 -2 21 -4z m-37 -33 c-7 -2 -19 -2 -25 0 -7 3
-2 5 12 5 14 0 19 -2 13 -5z m-206 -379 c8 -21 -18 -46 -36 -35 -10 7 -11 13
-2 30 14 25 29 27 38 5z m321 -14 c-7 -11 -21 -20 -30 -20 -16 0 -16 3 -6 20
7 11 21 20 30 20 16 0 16 -3 6 -20z m-652 -46 c-3 -8 -2 -14 3 -14 5 0 11 9
14 20 3 11 12 20 21 20 21 0 20 -10 -1 -26 -13 -9 -18 -26 -18 -62 0 -41 -2
-47 -13 -36 -7 8 -10 18 -7 24 3 5 1 10 -5 10 -6 0 -8 5 -5 10 3 6 3 15 -1 22
-5 8 -11 6 -20 -7 -12 -16 -13 -14 -12 18 1 24 7 37 17 40 22 5 33 -3 27 -19z
m568 -38 c-11 -22 -25 -36 -36 -36 -18 0 -18 2 -2 33 24 46 36 59 46 49 5 -5
2 -24 -8 -46z m-350 23 c11 17 26 3 26 -22 0 -35 -15 -50 -39 -42 -16 5 -19
10 -12 19 6 7 8 23 5 37 -4 17 -3 20 4 10 7 -9 12 -10 16 -2z m1991 -239 c8
-35 4 -93 -7 -101 -14 -10 -78 3 -78 16 0 23 30 99 43 107 23 15 35 8 42 -22z
m1015 9 c0 -4 -11 -6 -25 -6 -13 0 -22 3 -20 8 6 9 45 8 45 -2z m65 1 c3 -6
-1 -7 -9 -4 -18 7 -21 14 -7 14 6 0 13 -4 16 -10z m-1165 -126 c0 -13 8 -15
35 -12 40 5 42 -4 21 -64 -39 -109 -76 -112 -76 -7 0 67 -1 69 -25 69 -16 0
-25 6 -25 15 0 10 11 15 35 15 26 0 35 -4 35 -16z m-2350 -35 c0 -11 -4 -18
-10 -14 -5 3 -7 12 -3 20 7 21 13 19 13 -6z m-333 -25 c-3 -3 -12 -4 -19 -1
-8 3 -5 6 6 6 11 1 17 -2 13 -5z m3108 -55 c4 -11 4 -47 0 -80 -5 -45 -11 -59
-23 -59 -14 0 -17 10 -14 57 3 73 10 103 22 103 5 0 12 -9 15 -21z m-505 -19
c0 -11 -4 -20 -10 -20 -5 0 -10 9 -10 20 0 11 5 20 10 20 6 0 10 -9 10 -20z
m-2693 -36 c-3 -3 -12 -4 -19 -1 -8 3 -5 6 6 6 11 1 17 -2 13 -5z m3106 -104
c-3 -11 -12 -20 -19 -20 -16 0 -16 2 -8 24 9 24 33 20 27 -4z m-3096 -357 c-3
-10 -5 -4 -5 12 0 17 2 24 5 18 2 -7 2 -21 0 -30z m804 -153 c15 -9 17 -15 9
-29 -8 -16 -23 -19 -87 -21 -43 -1 -86 -2 -95 -2 -10 1 -18 -3 -18 -9 0 -5 -6
-9 -14 -9 -8 0 -21 -6 -28 -12 -8 -7 -27 -25 -44 -40 -29 -27 -30 -27 -30 -5
-1 28 39 84 66 92 11 4 18 10 15 15 -3 4 5 6 17 2 12 -3 19 -1 15 4 -3 5 30
11 76 12 45 2 83 5 86 8 6 6 10 5 32 -6z m183 -66 c4 -10 2 -13 -6 -8 -7 4 -8
3 -4 -5 6 -9 11 -9 22 0 8 6 17 9 21 5 3 -3 1 -6 -6 -6 -7 0 -10 -4 -6 -10 3
-5 12 -7 20 -3 8 3 15 0 15 -6 0 -6 7 -11 16 -11 8 0 12 -4 9 -10 -3 -5 -1
-10 4 -10 15 0 14 -37 0 -46 -7 -4 -10 -1 -7 7 5 15 -58 42 -79 35 -6 -3 -10
3 -8 12 1 9 -2 23 -7 29 -6 7 -8 20 -4 28 7 19 12 19 20 -1z m-1187 -26 c-3
-7 -5 -2 -5 12 0 14 2 19 5 13 2 -7 2 -19 0 -25z m1673 -68 c0 -5 -6 -10 -12
-10 -9 0 -8 -4 2 -10 13 -8 12 -10 -2 -10 -10 0 -18 -4 -18 -9 0 -5 -26 -9
-57 -8 -32 0 -50 2 -40 5 14 3 15 7 7 17 -8 10 -8 15 1 21 8 4 9 3 5 -4 -4 -7
-3 -12 3 -12 5 0 13 5 16 11 4 6 19 7 36 4 18 -4 29 -3 29 4 0 6 7 11 15 11 8
0 15 -4 15 -10z m-1024 -103 c-2 -13 -8 -32 -14 -43 -14 -24 -15 -14 -2 20 7
19 6 26 -3 26 -8 0 -7 4 3 10 8 5 16 10 17 10 1 0 0 -10 -1 -23z m1349 -17 c3
-5 1 -10 -4 -10 -6 0 -11 5 -11 10 0 6 2 10 4 10 3 0 8 -4 11 -10z m14 -32
c-1 -1 4 -14 11 -28 17 -30 18 -36 25 -125 4 -54 3 -64 -5 -46 -6 14 -13 41
-16 60 -3 20 -9 38 -13 41 -12 10 -12 32 1 48 11 13 10 15 -5 9 -15 -6 -17 -3
-12 13 4 13 2 20 -7 20 -10 0 -9 3 2 10 13 8 26 7 19 -2z m139 -153 c-1 -29
-6 -51 -10 -49 -5 3 -8 0 -8 -6 0 -6 -5 -8 -10 -5 -8 5 -8 11 -1 19 6 7 8 15
6 18 -3 3 -7 21 -8 41 -3 27 0 34 12 29 10 -4 12 -1 6 8 -5 9 -4 11 4 6 8 -5
11 -27 9 -61z m152 42 c14 -3 41 -9 60 -11 19 -3 57 -10 84 -17 49 -11 49 -12
25 -25 -29 -16 -21 -18 16 -4 22 8 34 6 66 -12 21 -12 39 -29 39 -37 0 -14 -1
-14 -10 -1 -8 12 -10 8 -11 -15 -1 -16 -1 -34 0 -38 1 -5 -3 -6 -8 -3 -5 4
-12 2 -16 -4 -3 -5 -11 -10 -18 -10 -6 0 -1 7 11 16 27 19 31 50 5 39 -27 -11
-63 -13 -57 -4 2 4 -4 13 -15 19 -13 7 -22 7 -26 0 -3 -5 -11 -10 -16 -10 -6
0 -8 4 -5 9 9 14 -22 21 -50 11 -32 -13 -37 -12 -29 0 4 6 -15 10 -50 10 -31
0 -54 4 -51 9 3 5 -6 12 -21 15 -19 5 -23 10 -14 19 6 6 11 20 11 32 0 21 27
25 80 12z m486 -21 c-4 -18 -11 -24 -22 -19 -12 4 -15 2 -12 -8 3 -8 -14 -34
-38 -58 -24 -24 -44 -48 -44 -53 0 -6 -6 -8 -14 -5 -10 4 -12 -1 -9 -16 4 -18
3 -19 -6 -7 -9 12 -11 11 -11 -9 0 -19 -3 -22 -12 -13 -8 8 -5 20 15 46 19 24
23 36 14 39 -7 3 -5 6 6 6 9 1 17 7 17 15 0 8 9 18 20 21 11 3 20 13 20 21 0
8 3 13 8 11 4 -2 15 4 25 15 16 17 16 18 0 19 -15 0 -15 2 2 8 14 6 22 4 27
-8 5 -12 7 -10 7 8 1 13 4 22 7 18 4 -3 4 -17 0 -31z m259 14 c3 -5 18 -10 33
-10 15 0 33 -4 41 -9 12 -8 12 -11 0 -23 -21 -19 -33 -20 -87 -6 -50 12 -63
23 -55 45 6 15 59 18 68 3z m194 -111 c-10 -6 -8 -9 9 -9 13 0 20 -4 17 -10
-3 -5 2 -10 11 -10 13 0 15 -3 7 -11 -6 -6 -9 -18 -6 -25 3 -9 -2 -14 -12 -14
-11 0 -15 5 -12 14 3 8 -2 20 -11 28 -15 12 -16 11 -3 -4 14 -19 5 -24 -16
-10 -7 4 -11 18 -8 30 6 31 15 43 27 36 6 -4 5 -10 -3 -15z m457 -25 c42 -6
50 -35 18 -69 -12 -14 -29 -25 -36 -26 -26 -2 -83 2 -102 8 -12 3 -16 1 -12
-6 4 -6 3 -11 -3 -11 -13 0 -25 45 -18 63 12 32 81 50 153 41z m207 -66 c39
-28 86 -79 87 -94 0 -6 6 -24 14 -40 20 -40 31 -138 15 -128 -8 5 -10 2 -7 -8
4 -8 -2 -27 -12 -42 l-17 -27 -14 45 c-7 25 -17 46 -21 46 -4 0 -8 14 -8 30 0
17 -4 30 -8 30 -5 0 -14 11 -20 25 -6 14 -15 24 -19 23 -19 -6 -61 35 -65 62
-3 17 -1 30 4 30 5 0 8 8 7 18 -5 58 13 67 64 30z m-108 -20 c-1 -13 -3 -29
-4 -35 0 -7 -6 -13 -12 -13 -5 0 -7 5 -3 11 3 6 0 15 -7 20 -10 6 -11 9 -1 9
6 0 12 7 12 15 0 8 4 15 9 15 4 0 7 -10 6 -22z m-2855 -73 c0 -8 20 -44 45
-81 44 -66 57 -101 33 -91 -7 2 -39 12 -70 22 -62 20 -60 16 -51 116 4 50 7
56 24 52 10 -3 19 -11 19 -18z m3573 -2 l58 -5 -53 -32 c-53 -32 -61 -42 -121
-145 -36 -62 -72 -86 -143 -97 -71 -10 -162 -8 -177 5 -23 19 -8 71 26 90 52
28 220 142 256 173 28 24 40 29 65 24 17 -4 57 -9 89 -13z m-3652 -97 c9 -19
9 -19 -4 -3 -8 9 -19 17 -26 17 -6 0 -11 4 -11 10 0 16 30 -1 41 -24z m528
-73 c-7 -13 -19 -21 -26 -18 -8 2 -11 0 -8 -5 4 -6 -6 -10 -22 -10 -22 0 -25
-2 -13 -10 9 -6 10 -10 3 -10 -28 0 -20 22 24 69 42 45 48 48 51 29 2 -11 -2
-32 -9 -45z m2346 49 c-6 -4 -10 -13 -11 -19 -4 -45 -5 -48 -15 -24 -7 18 -5
28 7 43 10 10 20 16 23 13 3 -4 1 -9 -4 -13z m-3095 -284 c30 -12 57 -25 60
-28 18 -18 75 -41 91 -37 10 3 19 1 19 -5 0 -5 4 -7 9 -4 5 3 11 -1 15 -9 3
-8 12 -12 21 -9 9 4 25 -2 36 -12 12 -11 22 -18 23 -16 1 4 21 -2 79 -24 45
-17 77 -18 77 -3 0 8 5 8 15 -1 8 -7 15 -18 15 -25 0 -8 18 -16 43 -20 23 -4
88 -22 145 -41 57 -19 123 -34 147 -34 24 0 48 -6 54 -14 14 -17 100 -46 135
-46 14 0 27 -4 30 -9 3 -5 26 -12 50 -15 24 -4 68 -16 97 -28 30 -12 77 -23
104 -25 28 -2 57 -7 65 -10 8 -3 24 -7 35 -9 66 -12 106 -24 150 -44 22 -10
80 -25 129 -34 49 -8 92 -20 96 -26 4 -6 29 -15 56 -19 27 -5 74 -16 104 -25
30 -9 70 -16 88 -16 18 0 49 -7 69 -15 19 -8 46 -15 60 -15 13 0 26 -7 29 -15
4 -9 19 -15 36 -15 16 0 39 -5 50 -11 12 -6 36 -13 55 -14 55 -6 93 -16 93
-26 0 -5 18 -9 40 -9 22 0 40 -4 40 -10 0 -5 14 -10 31 -10 38 0 203 -42 207
-52 2 -5 21 -8 43 -8 21 0 39 -4 39 -10 0 -5 28 -9 63 -10 86 0 101 -3 109
-20 5 -12 7 -12 7 3 1 20 17 23 25 5 5 -10 7 -10 12 0 3 6 13 12 22 12 11 0
13 -3 6 -8 -6 -4 -14 -19 -17 -34 -4 -15 -14 -33 -22 -42 -8 -8 -15 -17 -15
-21 0 -8 -53 -79 -62 -83 -5 -2 -8 -9 -8 -15 0 -7 -14 -27 -30 -46 -17 -18
-30 -37 -30 -42 0 -4 -62 -70 -139 -146 l-139 -139 -153 -51 c-85 -28 -188
-61 -229 -72 -41 -12 -88 -26 -105 -31 -33 -10 -170 -41 -285 -64 -72 -15
-204 -34 -396 -56 -50 -5 -138 -10 -195 -10 -75 0 -111 -4 -125 -14 -10 -8
-16 -18 -11 -22 7 -8 90 -9 228 -4 42 2 81 0 88 -4 6 -4 11 -2 11 3 0 6 8 11
18 11 12 0 13 -3 5 -8 -7 -4 18 -6 55 -4 37 2 72 8 77 12 6 4 21 3 35 -1 14
-4 19 -7 13 -8 -9 -1 -11 -12 -9 -33 3 -18 5 -37 5 -41 1 -5 5 -6 10 -3 5 3
16 -6 25 -20 16 -24 16 -26 -6 -44 -13 -11 -29 -19 -35 -20 -7 0 -13 -5 -13
-11 0 -5 -4 -8 -9 -4 -10 5 -83 -33 -89 -47 -2 -4 -10 -4 -19 -1 -12 5 -14 3
-8 -6 6 -10 2 -11 -16 -6 -13 4 -21 4 -17 0 4 -4 -16 -20 -45 -34 -126 -66
-150 -90 -176 -172 -15 -48 -47 -58 -56 -18 -8 37 -61 109 -81 109 -8 0 -36 9
-62 19 -26 11 -83 34 -127 51 -47 18 -97 46 -121 68 -22 20 -69 62 -103 92
-73 64 -89 94 -65 121 16 18 35 160 27 207 -3 17 1 22 17 22 12 0 18 -5 15
-10 -4 -6 7 -13 24 -16 17 -4 28 -10 25 -15 -3 -5 -1 -9 4 -9 5 0 46 -25 92
-56 87 -58 152 -94 170 -94 27 0 2 24 -82 81 -51 34 -105 73 -120 86 -15 14
-35 31 -46 37 -79 45 -368 319 -356 337 4 8 3 9 -4 5 -11 -7 -70 51 -104 103
-10 14 -18 22 -18 17 0 -5 -14 9 -30 30 -17 22 -37 46 -44 54 -7 9 -11 21 -8
28 2 7 -2 10 -10 7 -7 -3 -28 15 -48 43 -30 41 -42 76 -83 242 -26 107 -54
218 -62 245 -8 28 -17 70 -20 95 -3 25 -9 63 -15 85 -5 22 -10 57 -10 78 0 20
-4 37 -8 37 -17 0 -5 73 14 87 21 16 26 15 104 -19z m2410 -11 c0 -2 -10 -12
-21 -23 -22 -19 -22 -19 -8 4 12 19 29 30 29 19z m16 -75 c-18 -16 -18 -16 -6
6 6 13 14 21 18 18 3 -4 -2 -14 -12 -24z m1655 -61 c-9 -27 -19 -47 -23 -45
-3 2 -8 -1 -10 -6 -2 -6 -20 2 -40 17 -37 28 -50 50 -24 40 8 -3 17 0 20 8 3
8 21 17 40 21 20 3 33 10 30 15 -3 5 1 6 9 4 11 -5 11 -14 -2 -54z m-3681 8
c0 -6 -4 -7 -10 -4 -5 3 -10 11 -10 16 0 6 5 7 10 4 6 -3 10 -11 10 -16z
m2271 -61 c-14 -27 -58 -51 -67 -36 -9 15 58 80 70 68 6 -6 5 -17 -3 -32z
m1636 7 c-9 -31 -11 -33 -23 -17 -10 14 -10 20 3 35 25 27 32 20 20 -18z
m-5050 -27 c-3 -8 -6 -5 -6 6 -1 11 2 17 5 13 3 -3 4 -12 1 -19z m571 -79 c-6
-4 -2 -15 11 -28 22 -22 28 -56 11 -66 -6 -4 -11 6 -11 22 -2 23 -2 24 -6 6
-3 -16 -11 -23 -29 -23 -13 0 -24 5 -24 10 0 6 -10 10 -21 10 -19 0 -20 2 -8
17 12 15 12 16 -4 10 -11 -4 -16 -3 -12 3 3 6 12 10 18 10 7 0 18 13 25 29 11
26 15 28 37 18 13 -7 19 -15 13 -18z m27 -19 c3 -5 1 -10 -4 -10 -6 0 -11 5
-11 10 0 6 2 10 4 10 3 0 8 -4 11 -10z m-658 -952 c-2 -13 -4 -3 -4 22 0 25 2
35 4 23 2 -13 2 -33 0 -45z m4452 -54 c34 -43 36 -65 10 -85 -13 -10 -27 -19
-31 -19 -3 0 -8 29 -10 65 -1 36 0 65 4 65 4 0 16 -12 27 -26z m-64 -71 c-4
-42 -10 -83 -14 -92 -8 -15 -23 -133 -25 -191 -1 -14 -7 -26 -13 -26 -7 -1
-22 -2 -32 -3 -26 -1 -16 -40 14 -51 15 -6 25 -22 33 -52 12 -51 32 -172 39
-243 3 -27 12 -59 19 -70 8 -11 14 -31 14 -46 0 -14 3 -29 7 -33 14 -14 13
-53 -2 -103 -9 -29 -21 -53 -25 -53 -4 0 -13 -12 -19 -27 -6 -16 -23 -48 -38
-73 -26 -44 -27 -50 -30 -210 -2 -91 -3 -171 -3 -177 0 -7 -5 -13 -12 -13 -6
0 -9 3 -5 6 3 3 -3 16 -14 28 -11 11 -41 50 -67 86 -25 36 -52 69 -59 73 -7 4
-13 15 -13 24 0 9 -3 13 -7 10 -3 -4 -16 10 -28 30 -18 33 -20 41 -8 59 17 26
7 85 -13 77 -8 -3 -14 -9 -14 -14 0 -9 -71 -125 -92 -149 -7 -9 -19 -28 -27
-43 -8 -15 -21 -35 -30 -44 -9 -10 -43 -54 -76 -99 -119 -161 -209 -268 -317
-378 -78 -78 -78 -78 -74 -125 4 -52 -9 -326 -20 -406 -4 -27 -7 -95 -8 -150
-1 -55 -4 -102 -7 -105 -3 -3 -9 -42 -12 -87 -5 -72 -4 -84 11 -92 14 -7 21
-5 31 11 10 16 10 22 1 28 -9 6 -9 9 0 15 7 4 9 17 6 31 -4 16 -1 26 11 33 10
6 13 11 6 11 -6 0 -9 9 -6 20 4 13 -1 27 -13 36 -17 14 -17 15 -1 10 9 -3 17
-1 17 3 0 15 27 20 44 8 9 -7 18 -23 21 -37 3 -14 10 -27 15 -28 7 -3 4 -9 -5
-16 -16 -12 -28 -86 -13 -86 5 0 4 -9 -2 -19 -12 -23 -13 -71 -2 -87 5 -7 34
-9 90 -5 76 6 83 5 88 -14 4 -11 12 -23 18 -27 8 -6 7 -8 -1 -8 -7 0 -13 -5
-13 -11 0 -5 8 -9 19 -7 12 2 32 -14 60 -49 22 -29 41 -57 41 -63 0 -7 -21
-10 -59 -8 -32 2 -57 6 -55 9 3 5 -76 13 -101 10 -5 -1 -34 -4 -62 -7 -59 -7
-70 -25 -32 -57 23 -21 33 -16 34 15 0 12 6 22 13 24 7 1 8 0 3 -2 -19 -10 11
-42 33 -37 17 4 18 3 6 -6 -27 -19 -5 -19 35 0 48 24 62 21 37 -9 -10 -12 -23
-18 -28 -14 -4 4 -2 -2 6 -12 10 -13 10 -17 3 -12 -16 9 -17 -6 -1 -22 9 -9 8
-12 -7 -12 -16 0 -13 -5 12 -22 34 -24 41 -42 21 -52 -7 -4 -4 -5 8 -2 18 3
20 -1 18 -30 -1 -28 2 -34 18 -34 10 0 29 11 42 25 23 25 23 25 215 25 109 0
190 4 187 9 -6 10 33 20 52 13 7 -2 12 -9 12 -16 0 -10 60 -48 80 -50 3 -1 12
-7 20 -14 37 -31 93 -72 100 -72 4 0 13 -19 20 -43 6 -23 23 -61 37 -84 l25
-43 -49 0 c-27 0 -58 -7 -70 -15 -18 -13 -22 -13 -33 0 -8 10 -31 15 -67 15
-60 0 -93 -13 -93 -35 0 -23 -18 -18 -36 10 -15 22 -23 25 -79 25 -66 0 -95
-15 -95 -48 0 -12 -6 -10 -27 10 -16 14 -38 31 -50 37 -33 17 -110 13 -141 -6
l-27 -17 20 23 c16 19 17 24 5 32 -12 8 -10 10 9 5 l23 -5 -22 21 c-16 15 -24
18 -30 9 -4 -7 -10 19 -14 58 -5 52 -11 71 -22 71 -8 0 -14 5 -14 10 0 6 9 10
20 10 16 0 20 -7 20 -32 0 -42 10 -78 21 -78 4 0 5 23 2 51 -4 38 -2 53 8 60
9 5 -12 8 -56 8 -38 -1 -62 -3 -52 -6 18 -5 24 -23 8 -23 -19 0 -63 -50 -58
-64 4 -10 1 -13 -8 -10 -10 4 -12 0 -8 -15 3 -12 1 -21 -6 -21 -6 0 -11 8 -11
17 0 9 -3 14 -6 10 -3 -3 0 -20 7 -37 12 -25 18 -30 39 -26 14 3 19 3 13 0 -7
-3 -13 -12 -13 -20 0 -8 -5 -14 -11 -14 -5 0 -7 4 -4 10 3 5 -1 10 -9 10 -9 0
-16 4 -16 9 0 5 -10 7 -22 3 -22 -5 -22 -6 5 -15 26 -8 38 -27 17 -27 -5 0
-10 5 -10 11 0 7 -7 8 -17 3 -16 -7 -40 -10 -101 -13 -7 -1 -21 -15 -31 -32
-10 -17 -20 -27 -22 -22 -2 5 -17 18 -33 31 -16 12 -22 22 -15 22 11 0 11 2
-1 10 -9 6 -10 10 -3 10 6 0 12 8 11 18 0 9 7 71 16 136 8 66 15 121 13 122
-10 8 -44 12 -53 6 -6 -4 -14 -36 -18 -72 -3 -36 -8 -74 -10 -85 -2 -11 -7
-45 -11 -76 l-7 -57 -88 -4 c-59 -3 -96 -9 -113 -21 -16 -10 -28 -13 -32 -7
-3 6 -25 15 -49 21 l-42 10 -23 117 c-12 64 -24 129 -27 143 -5 25 -2 27 40
33 78 12 62 46 -21 46 -18 0 -33 4 -33 9 0 5 -3 16 -6 25 -5 13 1 16 30 16 20
0 36 5 36 11 0 5 -8 9 -17 8 -42 -4 -55 1 -49 17 4 10 -1 22 -11 30 -22 16
-13 19 72 30 l60 7 -40 9 c-22 5 -50 11 -62 14 -21 4 -23 10 -23 67 0 44 6 70
19 90 10 16 21 28 25 28 3 0 11 2 18 4 7 3 31 9 53 14 l40 9 -40 2 c-22 1 -49
5 -60 10 -19 7 -18 8 5 14 14 3 41 7 60 9 42 4 25 12 -45 23 l-50 8 70 11 c68
11 71 21 11 27 -35 4 -53 28 -41 54 5 11 9 26 9 34 1 9 24 20 66 30 l65 16
-40 8 c-22 3 -51 9 -65 12 l-26 5 15 122 c8 67 18 124 23 125 4 2 8 37 8 78 0
41 4 82 9 92 23 43 48 147 37 154 -7 5 -3 8 9 8 17 0 18 2 5 11 -12 9 -11 10
6 6 20 -4 52 28 40 40 -7 8 51 61 75 68 10 4 19 11 19 18 0 13 98 107 111 107
5 0 9 7 9 16 0 13 3 14 14 5 11 -9 15 -7 18 7 5 17 15 18 71 13 5 -1 5 -6 1
-12 -4 -8 -9 -7 -15 2 -5 8 -9 9 -9 3 0 -12 24 -36 31 -31 3 1 -4 -6 -14 -15
-17 -16 -17 -18 -3 -18 13 0 15 -4 8 -17 -12 -24 -10 -68 3 -68 6 0 10 5 10
10 0 6 4 16 8 23 5 6 5 17 2 22 -3 6 -1 10 4 10 6 0 11 8 11 18 1 37 80 245
107 280 40 52 93 131 93 137 0 3 -15 5 -32 5 -78 1 -64 44 15 47 26 2 52 5 57
8 11 7 110 156 110 166 0 8 -35 13 -77 12 -8 0 -9 6 -1 23 10 21 18 24 63 24
57 0 59 1 109 93 13 23 39 70 59 104 19 34 39 72 43 85 3 13 10 25 13 28 8 7
124 250 150 318 l21 52 -40 0 c-43 0 -45 2 -30 31 8 13 21 19 46 19 54 0 44
-18 166 302 18 49 34 88 36 88 1 0 0 -35 -3 -77z m-3487 -79 c-3 -58 -6 -68
-23 -70 -82 -13 -196 -28 -224 -28 -35 -1 -38 4 -61 111 -1 5 79 23 105 23 22
0 26 3 16 9 -10 6 0 8 30 5 24 -3 39 -2 32 3 -6 5 18 9 58 11 l70 3 -3 -67z
m4049 -36 c-2 -13 -4 -3 -4 22 0 25 2 35 4 23 2 -13 2 -33 0 -45z m-1917 -104
c7 -24 10 -52 7 -63 -3 -11 0 -22 7 -25 6 -2 -6 -3 -27 -2 -23 2 -43 10 -52
22 -16 21 -16 83 0 81 6 -1 10 5 9 13 -1 9 8 16 22 16 18 2 24 -6 34 -42z m10
-134 c0 -4 -6 -12 -13 -18 -9 -8 -16 -6 -25 8 -9 14 -8 20 1 23 15 5 37 -2 37
-13z m91 -77 c27 -16 49 -31 49 -35 0 -5 5 -8 10 -8 8 0 52 -25 99 -57 2 -1
-8 -27 -23 -57 -22 -44 -32 -55 -56 -58 -16 -2 -27 -2 -25 2 5 8 -87 37 -140
45 -74 11 -73 14 5 145 5 8 11 23 14 33 7 22 9 22 67 -10z m-101 -179 c0 -8
-19 -13 -24 -6 -3 5 1 9 9 9 8 0 15 -2 15 -3z m-1052 -240 c4 -25 -22 -49 -43
-40 -31 12 -9 70 25 64 8 -2 16 -13 18 -24z m3140 -31 c-10 -2 -26 -2 -35 0
-10 3 -2 5 17 5 19 0 27 -2 18 -5z m175 -30 c-7 -2 -21 -2 -30 0 -10 3 -4 5
12 5 17 0 24 -2 18 -5z m-3343 -37 c0 -18 -3 -48 -6 -65 -6 -27 -10 -31 -40
-31 -30 0 -33 -2 -25 -22 4 -13 18 -24 30 -26 15 -2 21 -11 21 -28 0 -13 -4
-24 -10 -24 -18 0 2 -30 25 -36 37 -9 44 -64 8 -64 -11 0 -14 -6 -9 -22 3 -13
6 -28 6 -35 0 -6 7 -19 16 -27 14 -15 14 -16 -3 -17 -10 0 -4 -5 14 -10 42
-12 48 -42 47 -221 -1 -144 -10 -174 -45 -165 -17 5 -33 -15 -22 -27 4 -3 19
-6 35 -6 16 0 27 -4 23 -9 -3 -5 -1 -13 5 -16 6 -4 9 -14 6 -23 -3 -10 -10
-57 -16 -106 -14 -113 -30 -165 -53 -172 -33 -10 -37 8 -22 106 7 52 16 123
20 158 l7 62 -31 0 c-25 0 -31 4 -31 21 0 17 5 20 25 17 44 -9 48 10 42 160
-7 160 -19 212 -48 212 -20 0 -34 26 -44 82 -3 17 -9 36 -12 41 -3 5 0 13 8
17 17 11 -5 40 -31 40 -12 0 -17 6 -15 18 2 9 4 20 4 25 1 4 13 7 27 7 30 0
28 20 -4 35 -12 5 -26 22 -31 36 -8 23 -7 26 9 22 12 -3 19 3 24 21 3 14 17
36 31 50 14 14 25 32 25 41 0 8 9 15 20 15 16 0 20 -7 20 -34z m-2010 -261 c0
-16 -6 -25 -15 -25 -9 0 -15 9 -15 25 0 16 6 25 15 25 9 0 15 -9 15 -25z
m-297 -30 c-3 -9 -8 -14 -10 -11 -3 3 -2 9 2 15 9 16 15 13 8 -4z m265 -70 c1
-20 1 -20 -13 -1 -16 21 -20 58 -7 70 7 8 19 -31 20 -69z m4160 40 c12 -14 22
-28 22 -30 0 -6 3 -10 48 -65 29 -35 38 -67 49 -165 4 -46 37 -106 67 -127 13
-9 15 -192 3 -205 -8 -8 -14 -2 -47 47 -8 13 -25 35 -37 50 -13 15 -23 32 -23
36 0 5 -15 30 -33 55 -38 54 -123 170 -135 184 -49 59 -55 74 -43 102 15 32
93 142 102 143 3 0 15 -11 27 -25z m-4091 -177 c-3 -8 -6 -5 -6 6 -1 11 2 17
5 13 3 -3 4 -12 1 -19z m71 -15 c-2 -10 2 -23 10 -28 10 -8 10 -16 2 -35 -10
-25 -10 -24 -5 3 4 17 2 26 -4 23 -14 -9 -23 11 -16 34 8 25 18 27 13 3z
m-529 -25 c1 15 21 16 21 1 0 -6 -9 -13 -20 -16 -23 -6 -26 -28 -6 -48 10 -10
11 -25 6 -54 -4 -25 -3 -44 4 -52 8 -9 8 -10 -3 -4 -11 7 -13 2 -8 -23 4 -22
2 -32 -9 -36 -31 -12 -34 -5 -34 65 0 44 4 68 10 64 6 -4 10 13 10 44 0 27 3
57 7 67 6 16 7 16 14 -2 4 -10 8 -13 8 -6z m11 -38 c0 -5 -5 -10 -11 -10 -5 0
-7 5 -4 10 3 6 8 10 11 10 2 0 4 -4 4 -10z m1077 -42 c-3 -8 -6 -5 -6 6 -1 11
2 17 5 13 3 -3 4 -12 1 -19z m2866 -38 c3 -11 1 -20 -4 -20 -5 0 -9 9 -9 20 0
11 2 20 4 20 2 0 6 -9 9 -20z m-18 -48 c-8 -8 -25 17 -25 38 0 9 6 6 16 -8 9
-13 13 -26 9 -30z m-2855 18 c0 -5 -4 -10 -10 -10 -5 0 -10 5 -10 10 0 6 5 10
10 10 6 0 10 -4 10 -10z m-353 -17 c0 -10 3 -31 5 -48 3 -16 3 -23 1 -15 -3 8
-9 19 -14 25 -11 11 -12 55 -1 55 4 0 8 -8 9 -17z m3177 9 c2 -4 -5 -9 -17 -9
-17 -2 -19 0 -7 7 18 12 18 12 24 2z m-3154 -22 c0 -5 -2 -10 -4 -10 -3 0 -8
5 -11 10 -3 6 -1 10 4 10 6 0 11 -4 11 -10z m-990 -44 c-6 -5 -16 -4 -25 4
-12 10 -13 15 -4 21 15 9 40 -13 29 -25z m1011 2 c11 -21 11 -22 -4 -9 -10 7
-17 17 -17 22 0 15 9 10 21 -13z m-1081 -38 c0 -5 -5 -10 -11 -10 -5 0 -7 5
-4 10 3 6 8 10 11 10 2 0 4 -4 4 -10z m243 -7 c-7 -2 -21 -2 -30 0 -10 3 -4 5
12 5 17 0 24 -2 18 -5z m4232 -20 c-5 -10 -9 -22 -9 -26 -1 -4 -5 -11 -11 -15
-5 -4 -19 -17 -29 -30 -20 -23 -20 -23 0 -16 17 7 18 6 4 -12 -8 -10 -19 -22
-25 -26 -5 -4 -10 -11 -11 -15 -3 -21 -27 -73 -34 -73 -4 0 -11 -11 -14 -25
-7 -27 -20 -32 -32 -13 -6 9 -7 77 -1 155 0 7 4 10 9 7 4 -3 8 1 8 9 0 21 28
29 53 15 20 -10 21 -10 8 6 -13 15 -12 18 7 22 13 4 19 11 15 20 -3 9 0 12 9
9 8 -3 23 3 33 13 23 23 31 20 20 -5z m-3618 -3 c-1 -12 -8 -20 -19 -20 -23 0
-23 9 0 26 22 17 21 17 19 -6z m1940 14 c-3 -3 -12 -4 -19 -1 -8 3 -5 6 6 6
11 1 17 -2 13 -5z m3213 -14 c0 -5 -5 -10 -11 -10 -5 0 -7 5 -4 10 3 6 8 10
11 10 2 0 4 -4 4 -10z m-5948 -23 c-6 -7 -12 -33 -14 -57 -3 -44 -4 -45 -38
-47 -19 -1 -29 0 -22 3 15 7 16 25 1 22 -7 -2 -16 12 -21 30 -10 36 -29 45
-21 10 5 -18 3 -21 -7 -11 -24 22 -4 43 42 43 24 0 50 5 58 10 21 14 34 12 22
-3z m1073 3 c3 -6 -1 -7 -9 -4 -18 7 -21 14 -7 14 6 0 13 -4 16 -10z m-1220
-28 c-3 -3 -11 0 -18 7 -9 10 -8 11 6 5 10 -3 15 -9 12 -12z m1402 -14 c-3 -7
-5 -2 -5 12 0 14 2 19 5 13 2 -7 2 -19 0 -25z m3241 -25 c-12 -15 -10 -16 14
-10 25 7 28 4 34 -28 3 -19 12 -39 20 -46 18 -15 18 -29 -1 -29 -21 0 -19 -13
5 -35 11 -10 20 -24 20 -32 0 -7 4 -13 8 -13 12 0 32 -181 32 -292 0 -80 -2
-98 -14 -98 -17 0 -88 79 -114 127 -15 29 -76 101 -173 206 -32 34 -35 42 -25
60 24 46 74 106 81 99 5 -4 6 0 4 8 -6 19 54 77 72 72 8 -3 11 -1 6 3 -4 5 3
19 15 33 19 20 24 21 26 7 2 -9 -2 -23 -10 -32z m-3704 2 c-4 -8 -8 -15 -10
-15 -2 0 -4 7 -4 15 0 8 4 15 10 15 5 0 7 -7 4 -15z m-888 -72 c-1 -31 2 -37
17 -35 9 2 17 -2 17 -8 0 -6 5 -8 11 -4 9 5 10 -1 5 -22 -10 -37 -7 -36 -60
-39 l-46 -3 5 56 c4 44 10 61 28 74 12 10 23 18 23 18 1 0 1 -17 0 -37z m-536
13 c0 -3 -4 -8 -10 -11 -5 -3 -10 -1 -10 4 0 6 5 11 10 11 6 0 10 -2 10 -4z
m137 -2 c-3 -3 -12 -4 -19 -1 -8 3 -5 6 6 6 11 1 17 -2 13 -5z m273 -4 c0 -5
-5 -10 -11 -10 -5 0 -7 5 -4 10 3 6 8 10 11 10 2 0 4 -4 4 -10z m-367 -25 c-3
-9 -8 -14 -10 -11 -3 3 -2 9 2 15 9 16 15 13 8 -4z m-36 -1 c-3 -3 -12 -4 -19
-1 -8 3 -5 6 6 6 11 1 17 -2 13 -5z m-33 -15 c3 -3 -6 -5 -19 -5 -14 0 -25 4
-25 8 0 8 36 6 44 -3z m43 -5 c-3 -3 -12 -4 -19 -1 -8 3 -5 6 6 6 11 1 17 -2
13 -5z m473 -105 c0 -5 -7 -25 -14 -44 -14 -33 -14 -35 4 -35 10 0 22 -4 25
-10 3 -5 14 -10 23 -9 14 0 13 2 -3 9 -19 8 -19 9 3 9 21 1 30 -18 15 -33 -5
-4 -8 -11 -9 -14 0 -4 -3 -14 -6 -22 -10 -25 -36 -123 -43 -156 -3 -18 -15
-40 -25 -49 -11 -10 -17 -21 -15 -25 7 -11 -40 -39 -53 -32 -20 13 -24 59 -9
94 24 53 30 90 15 99 -9 6 -8 12 5 27 9 10 17 26 17 35 0 9 4 17 9 17 5 0 11
11 14 25 3 19 -1 29 -15 36 -11 6 -17 13 -14 16 3 4 1 12 -5 19 -9 10 -7 15 5
20 9 3 16 12 16 20 0 8 7 14 16 14 8 0 12 5 8 11 -4 8 0 8 15 0 11 -7 21 -16
21 -22z m2749 -48 c-8 -22 -15 -28 -29 -24 -11 3 -18 8 -16 12 1 3 6 14 9 24
4 9 15 17 26 17 18 0 19 -3 10 -29z m3331 3 c0 -17 -22 -14 -28 4 -2 7 3 12
12 12 9 0 16 -7 16 -16z m-3247 -16 c-4 -7 -8 -20 -9 -28 -1 -14 -33 -88 -53
-120 -5 -8 -37 -71 -71 -140 -34 -69 -65 -128 -68 -132 -4 -3 -19 -4 -34 -1
l-26 5 30 52 c79 132 155 275 167 312 12 37 23 47 69 63 2 1 0 -5 -5 -11z
m-2626 -235 c-4 -3 -1 -13 5 -21 10 -11 8 -18 -10 -32 -13 -11 -18 -21 -12
-25 5 -3 10 -24 10 -46 0 -21 4 -39 9 -39 5 0 8 -70 7 -155 -1 -85 1 -155 4
-155 3 0 4 -50 2 -111 -2 -61 0 -118 4 -127 10 -24 11 -42 15 -184 2 -69 7
-124 12 -121 4 2 7 -1 7 -7 0 -6 -7 -13 -16 -17 -13 -5 -13 -7 -2 -14 9 -6 2
-9 -19 -9 -33 0 -63 -22 -63 -46 0 -21 -14 -17 -41 12 -23 25 -70 54 -86 54
-4 0 -1 -5 7 -10 11 -8 3 -10 -30 -9 -25 1 -54 -2 -65 -7 -19 -7 -19 -6 -5 12
14 17 14 18 -2 6 -10 -8 -17 -17 -16 -20 2 -18 -3 -30 -15 -35 -8 -3 -14 1
-14 9 0 7 4 11 9 8 4 -3 8 0 8 5 0 6 -6 11 -12 12 -10 0 -10 2 0 6 6 2 9 10 6
15 -4 6 -3 8 3 5 9 -6 30 39 38 84 3 13 9 27 15 33 5 5 10 18 10 28 0 10 4 18
9 18 5 0 3 20 -5 45 -11 39 -11 47 0 51 14 5 31 59 40 129 3 22 11 45 18 50
23 18 38 54 38 89 0 19 6 36 13 39 9 3 9 7 -1 20 -8 9 -10 22 -6 29 12 19 15
108 4 108 -6 0 -10 -7 -10 -15 0 -8 -11 -39 -25 -67 -14 -29 -23 -59 -20 -67
3 -9 3 -12 -1 -9 -8 8 -40 -56 -84 -167 -17 -44 -35 -87 -40 -97 -5 -9 -30
-69 -55 -135 -25 -65 -57 -145 -70 -178 -28 -70 -118 -339 -170 -510 -20 -66
-40 -131 -45 -145 -4 -14 -23 -79 -41 -145 -36 -135 -48 -167 -62 -162 -6 2
-11 16 -13 32 -3 28 10 161 21 215 3 14 14 70 25 125 10 55 35 176 54 269 20
94 34 172 31 174 -9 10 -63 -46 -102 -108 l-42 -65 -1 48 c0 26 6 112 14 190
7 78 14 158 15 177 1 34 25 185 39 246 6 27 34 62 155 198 31 36 35 22 13 -46
-35 -104 -60 -222 -57 -272 1 -19 1 -19 22 0 12 10 67 80 122 154 106 142 214
277 272 342 31 33 38 37 60 28 33 -13 45 -13 25 0 -13 8 -13 13 -2 30 7 12 10
30 7 41 -4 11 -2 19 4 19 6 0 11 11 11 24 0 14 5 28 10 31 17 11 12 77 -7 90
-16 12 -15 13 8 8 26 -5 28 -2 43 47 3 12 18 30 23 30 4 0 3 -3 0 -7z m723
-89 c0 -2 -9 -4 -20 -4 -11 0 -20 4 -20 9 0 5 9 7 20 4 11 -3 20 -7 20 -9z
m3860 -4 c0 -5 -4 -10 -10 -10 -5 0 -10 5 -10 10 0 6 5 10 10 10 6 0 10 -4 10
-10z m-4896 -55 c-4 -8 -11 -15 -16 -15 -6 0 -5 6 2 15 7 8 14 15 16 15 2 0 1
-7 -2 -15z m236 -5 c0 -5 -2 -10 -4 -10 -3 0 -8 5 -11 10 -3 6 -1 10 4 10 6 0
11 -4 11 -10z m2800 -39 c0 -12 -8 -16 -42 -25 -22 -5 -25 -3 -21 14 4 14 14
20 34 20 16 0 29 -4 29 -9z m1755 2 c36 -6 38 -7 15 -14 -49 -14 -167 -10
-180 6 -11 13 -4 15 56 15 38 0 87 -3 109 -7z m-2082 -37 c-1 -15 -9 -41 -17
-58 -9 -17 -14 -34 -11 -38 3 -4 -1 -10 -8 -13 -8 -3 -33 -45 -57 -94 -23 -48
-45 -90 -49 -93 -20 -15 -54 -75 -56 -99 -4 -57 -61 -84 -102 -49 -13 10 -13
13 0 23 8 5 18 21 22 35 19 61 130 261 155 280 3 3 21 31 39 62 45 80 88 102
84 44z m2227 24 c8 -5 11 -10 5 -10 -5 0 -17 5 -25 10 -8 5 -10 10 -5 10 6 0
17 -5 25 -10z m47 -56 c-3 -3 -12 -4 -19 -1 -8 3 -5 6 6 6 11 1 17 -2 13 -5z
m-179 -39 c3 -3 -16 -5 -41 -5 -26 0 -47 4 -47 8 0 9 80 6 88 -3z m-220 -22
c16 -16 16 -16 -1 -10 -10 4 -23 7 -28 7 -6 0 -7 5 -4 10 9 14 14 13 33 -7z
m272 -16 c-10 -9 -91 -17 -86 -9 2 4 24 9 48 11 23 1 40 0 38 -2z m-270 -33
c0 -17 -14 -18 -28 -1 -8 10 -6 13 9 14 10 1 19 -5 19 -13z m305 -34 c-15 -6
-4 -9 40 -12 l60 -4 -65 -4 c-65 -3 -65 -3 -20 -10 45 -7 44 -7 -17 -8 -35 -1
-63 2 -63 7 0 5 -7 17 -16 25 -14 15 -10 16 43 15 41 0 52 -3 38 -9z m-4735
-110 c0 -5 -8 -10 -17 -10 -15 0 -16 2 -3 10 19 12 20 12 20 0z m5289 -2 c-3
-21 12 -48 28 -48 10 0 12 -6 8 -20 -4 -11 -2 -20 4 -20 6 0 11 5 11 10 0 6 5
10 11 10 7 0 8 -12 4 -32 -9 -43 -10 -43 -37 -24 -12 9 -36 16 -53 16 -31 0
-65 28 -65 53 0 7 -5 18 -10 23 -19 19 19 38 83 43 10 0 17 -5 16 -11z m111
-118 c0 -12 -28 -25 -36 -17 -9 9 6 27 22 27 8 0 14 -5 14 -10z m-3019 -23
c-6 -8 -7 -18 -3 -22 4 -5 1 -5 -6 -1 -10 6 -10 11 -1 22 6 8 14 14 16 14 3 0
0 -6 -6 -13z m53 -14 c-10 -8 -18 -19 -16 -24 1 -6 -2 -8 -8 -4 -8 5 -8 11 -1
19 6 7 8 16 4 20 -4 4 1 4 11 0 15 -6 17 -4 11 6 -6 9 -4 11 5 5 10 -6 9 -11
-6 -22z m182 12 c-3 -8 0 -15 7 -16 9 0 9 -2 -1 -6 -6 -2 -10 -8 -8 -12 3 -4
-5 -8 -17 -8 -17 -2 -19 0 -7 7 8 5 16 14 16 20 1 5 2 15 3 20 0 6 4 10 7 10
3 0 4 -7 0 -15z m-155 -18 c-10 -9 -11 -8 -5 6 3 10 9 15 12 12 3 -3 0 -11 -7
-18z m120 6 c13 -16 12 -17 -3 -4 -17 13 -22 21 -14 21 2 0 10 -8 17 -17z
m109 -17 c0 -6 -5 -3 -11 7 -6 9 -15 14 -21 11 -7 -4 -8 -2 -4 5 9 14 36 -3
36 -23z m-123 -10 c-2 -6 -14 -13 -26 -14 -14 -2 -21 0 -17 7 4 5 14 7 24 4
15 -6 15 -5 3 10 -12 15 -12 17 3 11 9 -4 15 -12 13 -18z m2135 7 c2 -5 18
-20 36 -35 l34 -28 -104 0 c-70 0 -98 3 -88 10 12 8 10 10 -8 10 -14 0 -21 4
-16 11 4 8 0 8 -15 0 -11 -7 -21 -8 -21 -4 0 4 -5 1 -11 -7 -9 -13 -10 -13 -7
0 3 8 14 19 26 25 12 5 22 13 22 17 0 10 147 10 152 1z m688 -9 c0 -17 16 -19
23 -1 4 7 6 6 6 -5 1 -9 7 -19 14 -21 6 -3 2 -6 -10 -6 -12 -1 -34 9 -48 22
-26 21 -26 23 -6 24 12 1 21 -4 21 -13z m-3470 -4 c0 -5 -5 -10 -11 -10 -5 0
-7 5 -4 10 3 6 8 10 11 10 2 0 4 -4 4 -10z m80 6 c0 -3 -4 -8 -10 -11 -5 -3
-10 -1 -10 4 0 6 5 11 10 11 6 0 10 -2 10 -4z m150 0 c0 -3 -4 -8 -10 -11 -5
-3 -10 -1 -10 4 0 6 5 11 10 11 6 0 10 -2 10 -4z m67 -2 c-3 -3 -12 -4 -19 -1
-8 3 -5 6 6 6 11 1 17 -2 13 -5z m33 -4 c0 -5 -5 -10 -11 -10 -5 0 -7 5 -4 10
3 6 8 10 11 10 2 0 4 -4 4 -10z m146 -2 c4 -6 3 -8 -4 -4 -6 3 -13 2 -17 -4
-4 -6 -11 -8 -16 -4 -5 3 -7 10 -4 15 8 13 32 11 41 -3z m54 8 c0 -3 -4 -8
-10 -11 -5 -3 -10 -1 -10 4 0 6 5 11 10 11 6 0 10 -2 10 -4z m60 -6 c0 -5 -2
-10 -4 -10 -3 0 -8 5 -11 10 -3 6 -1 10 4 10 6 0 11 -4 11 -10z m140 0 c0 -5
-4 -10 -10 -10 -5 0 -10 5 -10 10 0 6 5 10 10 10 6 0 10 -4 10 -10z m2837 -26
c-3 -3 -12 -4 -19 -1 -8 3 -5 6 6 6 11 1 17 -2 13 -5z m-2867 -33 c0 -5 -6
-11 -13 -14 -19 -7 -68 4 -61 14 7 12 74 12 74 0z m2245 -32 c25 -12 45 -23
45 -25 0 -2 -70 -4 -155 -4 -139 0 -156 2 -162 18 -4 9 -11 20 -17 24 -6 4 46
8 117 8 109 0 134 -3 172 -21z m-341 -11 c-3 -4 -9 -8 -15 -8 -5 0 -9 4 -9 8
0 5 7 9 15 9 8 0 12 -4 9 -9z m-1944 -33 c0 -21 -17 -27 -50 -20 -40 9 -39 33
3 37 39 4 47 1 47 -17z m2437 9 c-3 -3 -12 -4 -19 -1 -8 3 -5 6 6 6 11 1 17
-2 13 -5z m781 -65 c-2 -6 3 -14 10 -16 7 -3 12 -1 11 4 -3 17 1 24 11 18 15
-9 -8 -35 -30 -35 -16 0 -19 11 -11 38 3 8 11 0 9 -9z m-131 -16 c-4 -3 -1
-13 6 -22 11 -14 10 -14 -5 -2 -16 12 -16 31 -1 31 4 0 3 -3 0 -7z m-330 -16
c0 -7 -9 -13 -19 -13 -23 0 -24 13 0 19 9 3 17 5 18 6 0 0 1 -5 1 -12z m78 3
c3 -5 2 -10 -4 -10 -5 0 -13 5 -16 10 -3 6 -2 10 4 10 5 0 13 -4 16 -10z m158
-8 c-5 -11 -7 -11 -14 0 -7 10 -9 10 -9 1 0 -7 -8 -13 -17 -13 -17 1 -17 1 -1
14 23 17 48 16 41 -2z m513 1 c-9 -9 -76 -21 -70 -12 3 5 14 9 24 9 10 0 22 5
25 10 4 6 11 8 16 4 6 -3 8 -8 5 -11z m48 -5 c-7 -10 -34 -10 -34 0 0 4 9 8
19 8 11 0 17 -4 15 -8z m-7474 -48 c0 -5 -4 -10 -10 -10 -5 0 -10 5 -10 10 0
6 5 10 10 10 6 0 10 -4 10 -10z m3513 -47 c-7 -2 -19 -2 -25 0 -7 3 -2 5 12 5
14 0 19 -2 13 -5z m-1383 -23 c0 -5 -2 -10 -4 -10 -3 0 -8 5 -11 10 -3 6 -1
10 4 10 6 0 11 -4 11 -10z m5180 -70 l0 -40 -55 0 -55 0 0 33 c0 44 4 47 62
47 l48 0 0 -40z m-4079 -92 l0 -123 32 39 c76 93 67 87 129 84 l57 -3 -54 -65
c-30 -36 -55 -69 -55 -73 0 -4 27 -48 60 -97 l61 -90 -61 0 -60 0 -45 70 c-25
39 -50 68 -55 65 -6 -3 -10 -35 -10 -71 l0 -64 -50 0 -50 0 0 225 0 225 50 0
50 0 1 -122z m-1867 95 c3 -10 17 -74 31 -142 14 -69 27 -126 28 -128 2 -2 19
61 38 139 l34 143 55 0 54 0 31 -130 c41 -170 40 -169 54 -105 6 30 21 97 32
148 l21 92 49 0 c37 0 49 -4 49 -15 0 -9 -23 -108 -51 -220 l-51 -205 -59 0
-58 0 -11 43 c-45 172 -54 203 -60 210 -3 4 -17 -37 -30 -90 -43 -180 -32
-163 -100 -163 l-59 0 -10 38 c-5 20 -28 111 -51 202 -22 91 -43 173 -46 183
-5 15 2 17 50 17 43 0 56 -4 60 -17z m901 -124 c15 -77 31 -136 35 -132 4 4
22 68 40 141 l32 132 53 0 54 0 32 -140 c18 -77 35 -140 39 -140 3 0 20 62 36
138 l29 137 53 3 c28 2 52 0 52 -3 0 -9 -90 -367 -101 -402 -10 -32 -12 -33
-67 -33 l-57 0 -34 131 c-20 75 -37 125 -41 117 -4 -7 -20 -66 -36 -130 l-28
-118 -61 0 -60 0 -53 213 c-29 116 -52 215 -52 220 0 4 24 7 54 7 l53 0 28
-141z m3640 100 c-4 -5 -12 -9 -18 -8 -9 0 -8 2 1 6 6 2 9 10 6 15 -4 7 -2 8
5 4 6 -4 9 -12 6 -17z m-1505 1 c0 -5 -5 -10 -11 -10 -5 0 -7 5 -4 10 3 6 8
10 11 10 2 0 4 -4 4 -10z m1467 4 c-3 -3 -12 -4 -19 -1 -8 3 -5 6 6 6 11 1 17
-2 13 -5z m0 -20 c-3 -3 -12 -4 -19 -1 -8 3 -5 6 6 6 11 1 17 -2 13 -5z m63 2
c0 -2 -6 -9 -14 -15 -11 -9 -16 -9 -22 0 -4 8 -3 9 4 5 7 -4 12 -2 12 3 0 6 5
11 10 11 6 0 10 -2 10 -4z m-2958 -56 c68 -19 78 -44 78 -196 l0 -134 -50 0
c-38 0 -50 4 -50 15 0 12 -7 11 -40 -6 -83 -43 -160 -1 -160 87 0 62 37 100
106 109 99 13 103 15 84 45 -10 17 -83 20 -138 6 l-33 -9 3 39 c3 34 7 40 33
45 48 10 127 10 167 -1z m743 -4 c46 -20 75 -69 75 -128 l0 -48 -110 0 c-100
0 -110 -2 -110 -18 0 -27 42 -62 82 -68 24 -4 50 0 83 15 26 12 49 21 52 21 2
0 3 -19 1 -42 -3 -41 -5 -43 -48 -56 -57 -17 -150 -10 -191 15 -58 33 -74 66
-74 148 0 87 17 118 85 153 51 25 106 28 155 8z m972 -21 c47 -54 55 -166 17
-240 -34 -64 -105 -89 -176 -60 -16 6 -18 0 -18 -59 l0 -66 -50 0 -50 0 0 225
0 225 50 0 c38 0 50 -4 50 -15 0 -12 7 -11 38 6 49 27 108 20 139 -16z m476
24 c35 -9 37 -12 37 -51 0 -34 -2 -39 -17 -33 -54 23 -93 28 -118 17 -36 -17
-27 -35 26 -50 84 -24 113 -44 123 -83 12 -51 -8 -89 -64 -116 -49 -25 -98
-29 -166 -12 -44 11 -44 12 -44 55 0 49 1 50 34 29 34 -23 107 -29 130 -12 26
19 14 34 -37 47 -73 19 -98 32 -112 61 -22 41 -18 74 11 108 39 47 117 63 197
40z m309 1 c68 -19 78 -44 78 -196 l0 -134 -50 0 c-38 0 -50 4 -50 15 0 12 -7
11 -40 -6 -52 -27 -105 -21 -137 16 -30 34 -31 102 -4 137 21 26 79 48 127 48
38 0 58 14 51 33 -8 22 -72 32 -117 18 -57 -17 -62 -15 -58 26 3 33 7 39 33
44 48 10 127 10 167 -1z m417 -16 l31 -26 32 24 c49 34 112 32 144 -5 23 -27
24 -35 24 -168 l0 -139 -50 0 -50 0 0 120 c0 108 -2 120 -19 130 -13 7 -28 7
-45 0 -26 -9 -26 -10 -26 -130 l0 -120 -50 0 -50 0 0 99 c0 139 -17 173 -75
151 -25 -9 -25 -11 -25 -130 l0 -120 -50 0 -50 0 0 165 0 165 50 0 c38 0 50
-4 50 -15 0 -17 16 -20 25 -4 22 35 95 36 134 3z m1188 2 c42 -21 53 -62 53
-203 l0 -113 -50 0 c-38 0 -50 4 -50 15 0 19 -3 19 -42 -5 -97 -59 -203 32
-156 134 13 31 81 66 129 67 19 0 43 4 53 8 19 7 19 8 -3 30 -20 20 -30 23
-70 18 -25 -4 -56 -9 -69 -13 -22 -6 -23 -4 -20 32 3 34 7 40 33 46 48 11 158
2 192 -16z m-2957 -75 c0 -151 15 -182 79 -160 l31 11 0 119 0 119 50 0 50 0
0 -165 0 -165 -50 0 c-38 0 -50 4 -50 15 0 19 -3 19 -42 -5 -66 -40 -138 -14
-158 58 -5 20 -10 88 -10 150 l0 112 50 0 50 0 0 -89z m2180 -21 c0 -98 2
-112 21 -131 14 -14 27 -18 42 -13 44 13 47 22 47 140 l0 114 50 0 50 0 0
-165 0 -165 -50 0 c-38 0 -50 4 -50 15 0 19 2 19 -45 -5 -45 -23 -73 -25 -109
-9 -44 20 -56 64 -56 203 l0 126 50 0 50 0 0 -110z m390 90 l0 -20 37 20 c61
32 73 28 73 -28 l0 -47 -37 -1 c-72 0 -73 -1 -73 -124 l0 -110 -50 0 -50 0 0
165 0 165 50 0 c43 0 50 -3 50 -20z m620 -145 l0 -165 -50 0 -50 0 0 165 0
165 50 0 50 0 0 -165z m-2540 130 c14 -19 14 -19 -2 -6 -10 7 -18 18 -18 24 0
6 1 8 3 6 1 -2 9 -13 17 -24z m-2800 2 c0 -8 -12 -13 -30 -13 -38 0 -39 13 -2
19 15 2 28 5 30 6 1 0 2 -5 2 -12z m137 -9 c-3 -8 -6 -5 -6 6 -1 11 2 17 5 13
3 -3 4 -12 1 -19z m-27 -98 l0 -40 -95 0 -95 0 0 40 0 40 95 0 95 0 0 -40z
m-2173 -52 c-3 -8 -6 -5 -6 6 -1 11 2 17 5 13 3 -3 4 -12 1 -19z m1983 -39 c0
-6 14 -23 31 -40 l30 -30 -27 7 c-15 4 -25 3 -22 -2 3 -5 1 -18 -3 -29 -9 -18
-9 -18 -5 2 2 13 0 26 -5 29 -8 5 -10 -2 -14 -46 0 -8 -5 -22 -10 -29 -5 -10
-4 -16 3 -19 16 -5 15 -51 -1 -58 -10 -4 -13 -19 -9 -54 3 -33 1 -50 -7 -50
-6 0 -11 -17 -11 -41 0 -32 -3 -40 -15 -35 -12 4 -13 -3 -8 -39 l6 -45 -34 -1
c-24 -1 -27 -3 -11 -6 27 -5 29 -33 2 -33 -11 0 -20 -6 -20 -14 0 -21 -40 -28
-41 -8 -1 10 -3 28 -6 42 -2 14 -6 48 -9 75 -8 81 -11 99 -17 115 -3 8 -8 33
-10 55 -3 22 -8 48 -12 58 -6 15 0 17 64 17 83 0 93 9 111 100 6 30 14 62 17
70 4 8 6 18 5 22 -1 4 5 5 13 2 8 -4 15 -10 15 -15z m340 -163 c0 -5 -13 8
-30 29 -16 21 -30 40 -30 43 0 10 59 -62 60 -72z m-59 37 c13 -16 12 -17 -3
-4 -17 13 -22 21 -14 21 2 0 10 -8 17 -17z m3134 -72 c-8 -28 -37 -43 -56 -29
-11 8 -11 9 4 4 9 -3 17 -2 17 3 0 16 -13 20 -36 11 -13 -5 -26 -5 -28 -1 -3
5 9 12 27 16 l32 8 -30 7 c-16 4 -22 8 -13 9 10 0 22 11 29 22 l11 22 25 -26
c18 -18 23 -31 18 -46z m-146 0 c14 -9 7 -31 -10 -31 -6 0 -7 5 -3 11 3 6 0
15 -7 20 -8 5 -9 9 -4 9 6 0 16 -4 24 -9z m41 -25 c0 -2 -7 -7 -16 -10 -8 -3
-12 -2 -9 4 6 10 25 14 25 6z"/>
<path d="M3657 6929 c7 -7 15 -10 18 -7 3 3 -2 9 -12 12 -14 6 -15 5 -6 -5z"/>
<path d="M5218 6493 c7 -3 16 -2 19 1 4 3 -2 6 -13 5 -11 0 -14 -3 -6 -6z"/>
<path d="M5900 6500 c0 -5 7 -7 15 -4 8 4 15 8 15 10 0 2 -7 4 -15 4 -8 0 -15
-4 -15 -10z"/>
<path d="M6483 6383 c9 -2 23 -2 30 0 6 3 -1 5 -18 5 -16 0 -22 -2 -12 -5z"/>
<path d="M4217 5240 c-15 -12 -27 -30 -27 -40 0 -9 -6 -23 -14 -29 -21 -17
-40 -124 -32 -181 14 -104 85 -216 162 -255 22 -11 41 -22 44 -25 24 -24 142
-64 235 -79 81 -13 121 -25 152 -44 61 -38 129 -50 257 -45 122 5 167 20 224
72 30 28 32 34 32 97 0 49 -5 72 -17 88 -22 26 -90 41 -123 28 -15 -5 -91 -7
-184 -3 -156 5 -159 6 -207 37 -27 17 -70 37 -96 45 -70 21 -89 38 -108 94
-14 41 -24 55 -61 76 -24 14 -44 33 -44 41 0 25 -52 113 -67 113 -7 0 -13 4
-13 8 0 5 -6 9 -12 10 -7 1 -27 4 -43 8 -22 4 -38 0 -58 -16z"/>
<path d="M5336 4885 c4 -8 10 -15 14 -15 5 0 11 -8 14 -18 3 -9 15 -23 27 -30
19 -12 20 -12 14 10 -4 13 -17 33 -28 46 -23 25 -49 30 -41 7z"/>
<path d="M5285 4840 c3 -5 10 -10 16 -10 5 0 9 5 9 10 0 6 -7 10 -16 10 -8 0
-12 -4 -9 -10z"/>
<path d="M6636 3355 c-3 -9 0 -15 9 -15 8 0 15 7 15 15 0 8 -4 15 -9 15 -5 0
-11 -7 -15 -15z"/>
<path d="M5920 2650 c0 -5 5 -10 11 -10 5 0 7 5 4 10 -3 6 -8 10 -11 10 -2 0
-4 -4 -4 -10z"/>
<path d="M6075 1621 c3 -6 0 -11 -8 -11 -21 0 -25 -15 -33 -120 l-7 -92 24 7
c32 9 49 32 51 69 2 57 6 81 13 99 4 10 3 17 -5 17 -6 0 -9 4 -6 8 2 4 -4 14
-16 21 -11 7 -17 8 -13 2z"/>
<path d="M6344 1579 c-3 -6 -1 -16 4 -21 8 -8 11 -5 9 11 -1 24 -3 25 -13 10z"/>
<path d="M6375 1500 c3 -5 11 -10 16 -10 6 0 7 5 4 10 -3 6 -11 10 -16 10 -6
0 -7 -4 -4 -10z"/>
<path d="M6036 1387 c-14 -10 -20 -30 -22 -71 -2 -31 -6 -60 -8 -65 -9 -14 20
-20 51 -11 15 4 21 9 14 9 -12 1 -12 4 -3 13 17 17 15 28 -5 28 -15 1 -15 3 5
19 24 21 29 60 10 79 -15 15 -20 15 -42 -1z"/>
<path d="M6184 1333 c3 -7 -2 -14 -14 -18 -11 -3 -20 -13 -20 -21 0 -10 5 -12
13 -8 7 5 6 0 -3 -11 -14 -17 -14 -18 10 -5 14 8 28 14 31 13 11 -3 3 37 -11
50 -9 8 -11 8 -6 0z"/>
<path d="M6161 1253 c-16 -11 -21 -23 -19 -46 3 -28 7 -32 33 -32 26 0 30 3
31 33 1 17 -4 32 -10 32 -6 0 -5 4 2 9 11 7 11 9 -1 14 -8 3 -24 -1 -36 -10z"/>
<path d="M6320 1145 c0 -16 16 -20 24 -6 3 5 -1 11 -9 15 -9 3 -15 0 -15 -9z"/>
<path d="M6820 1139 c0 -5 -4 -8 -9 -4 -5 3 -12 2 -15 -3 -2 -4 6 -9 20 -10
15 -1 24 3 24 13 0 8 -4 15 -10 15 -5 0 -10 -5 -10 -11z"/>
<path d="M6868 1134 c9 -8 28 -13 42 -13 17 1 19 3 7 6 -9 2 -15 8 -13 12 3 4
-8 8 -24 8 -26 0 -27 -2 -12 -13z"/>
<path d="M6936 1136 c10 -8 21 -12 24 -10 5 6 -21 24 -34 24 -6 0 -1 -6 10
-14z"/>
<path d="M6125 910 c-3 -6 1 -7 9 -4 18 7 21 14 7 14 -6 0 -13 -4 -16 -10z"/>
<path d="M1840 2609 c0 -5 5 -7 10 -4 6 3 10 8 10 11 0 2 -4 4 -10 4 -5 0 -10
-5 -10 -11z"/>
<path d="M6526 2033 c-11 -11 -6 -23 9 -23 8 0 15 4 15 9 0 13 -16 22 -24 14z"/>
<path d="M1953 1940 c0 -25 2 -35 4 -22 2 12 2 32 0 45 -2 12 -4 2 -4 -23z"/>
<path d="M1973 1940 c0 -25 2 -35 4 -22 2 12 2 32 0 45 -2 12 -4 2 -4 -23z"/>
<path d="M1901 1714 c0 -11 3 -14 6 -6 3 7 2 16 -1 19 -3 4 -6 -2 -5 -13z"/>
<path d="M3410 671 c-50 -10 -60 -18 -60 -51 0 -23 5 -31 26 -36 14 -4 36 -2
50 5 20 9 24 18 24 51 0 22 -1 39 -2 39 -2 -1 -19 -4 -38 -8z"/>
<path d="M4096 779 c-44 -35 -34 -49 34 -49 53 0 60 2 60 19 0 20 -34 51 -56
51 -6 0 -23 -9 -38 -21z"/>
<path d="M5028 773 c-16 -4 -18 -17 -18 -94 l0 -90 43 3 c37 3 44 7 60 41 14
27 17 48 12 77 -10 62 -37 79 -97 63z"/>
<path d="M5910 671 c-50 -10 -60 -18 -60 -51 0 -23 5 -31 26 -36 14 -4 36 -2
50 5 20 9 24 18 24 51 0 22 -1 39 -2 39 -2 -1 -19 -4 -38 -8z"/>
<path d="M7476 670 c-21 -4 -42 -13 -47 -21 -16 -24 -5 -53 23 -63 38 -13 78
14 78 54 0 35 -5 38 -54 30z"/>
<path d="M2390 580 c0 -5 5 -10 10 -10 6 0 10 5 10 10 0 6 -4 10 -10 10 -5 0
-10 -4 -10 -10z"/>
<path d="M2295 430 c-16 -7 -17 -9 -3 -9 9 -1 19 -7 21 -13 3 -7 6 -3 6 10 1
12 0 22 -1 21 -2 0 -12 -4 -23 -9z"/>
<path d="M2879 8793 c-1 -5 -1 -11 0 -15 0 -5 -3 -8 -8 -8 -5 0 -12 -15 -16
-32 -4 -18 -18 -50 -31 -70 -13 -21 -29 -60 -35 -88 -6 -27 -15 -50 -20 -50
-6 0 -7 6 -4 13 4 6 -3 1 -14 -13 -11 -14 -21 -22 -22 -17 -1 4 -2 13 -3 20
-1 6 -8 11 -16 9 -10 -2 -11 0 -2 11 9 11 4 11 -33 3 -29 -7 -41 -14 -35 -20
6 -6 10 -20 10 -32 0 -20 -7 -23 -62 -29 -63 -7 -172 -28 -218 -42 -17 -5 9
-10 78 -13 85 -4 105 -8 113 -22 11 -19 54 -24 64 -8 4 6 12 7 18 3 7 -4 17
-8 22 -8 16 -1 173 -83 180 -95 4 -7 -37 -10 -122 -10 -105 -1 -124 -3 -108
-13 13 -7 81 -14 185 -17 l165 -5 48 50 c27 27 60 67 74 89 13 21 82 95 151
165 70 70 123 123 118 119 -16 -13 -26 -9 -19 9 5 13 2 15 -15 11 -12 -4 -20
-3 -18 1 3 4 -30 8 -72 8 -124 3 -120 1 -133 55 l-11 48 -104 0 c-57 0 -105
-3 -105 -7z m38 -9 c-3 -3 -12 -4 -19 -1 -8 3 -5 6 6 6 11 1 17 -2 13 -5z
m-61 -285 c69 -36 96 -58 87 -71 -10 -18 -75 0 -130 37 -56 37 -64 51 -35 58
9 3 18 5 18 6 1 0 28 -13 60 -30z m-86 -105 c24 -12 22 -13 -28 -14 -33 0 -51
4 -47 10 3 6 0 10 -7 10 -9 0 -9 3 2 10 16 10 40 6 80 -16z"/>
<path d="M4060 8520 c0 -5 5 -10 10 -10 6 0 10 5 10 10 0 6 -4 10 -10 10 -5 0
-10 -4 -10 -10z"/>
<path d="M3682 8233 c-13 -25 -4 -42 18 -36 21 6 28 23 9 23 -8 0 -8 5 1 15
10 12 10 15 -3 15 -9 0 -20 -8 -25 -17z"/>
<path d="M2755 8194 c25 -19 166 -16 173 4 3 9 -20 12 -95 12 -89 -1 -96 -2
-78 -16z"/>
<path d="M2628 8053 c17 -2 47 -2 65 0 17 2 3 4 -33 4 -36 0 -50 -2 -32 -4z"/>
<path d="M2783 8053 c15 -2 37 -2 50 0 12 2 0 4 -28 4 -27 0 -38 -2 -22 -4z"/>
<path d="M2878 8053 c6 -2 18 -2 25 0 6 3 1 5 -13 5 -14 0 -19 -2 -12 -5z"/>
<path d="M3153 8053 c9 -2 25 -2 35 0 9 3 1 5 -18 5 -19 0 -27 -2 -17 -5z"/>
<path d="M3238 8053 c7 -3 16 -2 19 1 4 3 -2 6 -13 5 -11 0 -14 -3 -6 -6z"/>
<path d="M3122 7886 c-12 -24 -22 -48 -22 -55 0 -6 -5 -11 -11 -11 -5 0 -7 -4
-4 -10 3 -5 2 -10 -2 -10 -5 0 -9 -9 -9 -20 0 -13 7 -20 21 -20 16 0 25 13 43
69 12 38 22 76 22 85 0 29 -16 17 -38 -28z"/>
<path d="M6983 7866 c-3 -5 -1 -6 5 -2 6 3 13 2 17 -3 3 -6 12 -8 20 -5 8 4
13 10 10 14 -7 11 -45 8 -52 -4z"/>
<path d="M7060 7870 c0 -9 126 -8 134 0 3 3 -26 6 -64 6 -39 0 -70 -3 -70 -6z"/>
<path d="M7217 7868 c-6 -4 14 -6 45 -5 31 2 60 5 63 9 9 8 -94 5 -108 -4z"/>
<path d="M7345 7870 c6 -10 155 -11 155 -1 0 4 -36 7 -80 8 -44 0 -78 -3 -75
-7z"/>
<path d="M7515 7870 c3 -5 8 -10 11 -10 2 0 4 5 4 10 0 6 -5 10 -11 10 -5 0
-7 -4 -4 -10z"/>
<path d="M7540 7876 c0 -2 7 -6 15 -10 8 -3 15 -1 15 4 0 6 -7 10 -15 10 -8 0
-15 -2 -15 -4z"/>
<path d="M7610 7870 c0 -5 5 -10 10 -10 6 0 10 5 10 10 0 6 -4 10 -10 10 -5 0
-10 -4 -10 -10z"/>
<path d="M7645 7871 c10 -9 116 -10 110 -1 -3 4 -30 8 -60 8 -31 -1 -53 -4
-50 -7z"/>
<path d="M3452 7844 c-20 -22 -10 -40 11 -20 18 18 23 36 10 36 -5 -1 -14 -7
-21 -16z"/>
<path d="M2906 7825 c-9 -26 -7 -32 5 -12 6 10 9 21 6 23 -2 3 -7 -2 -11 -11z"/>
<path d="M3021 7751 c-11 -20 -5 -31 16 -31 7 0 13 11 13 25 0 29 -15 33 -29
6z"/>
<path d="M3270 7733 c7 -3 7 -10 -2 -21 -8 -10 -9 -13 -1 -9 6 4 14 3 18 -3 3
-5 12 -10 18 -10 7 0 3 7 -8 16 -11 8 -19 18 -17 22 2 3 -1 7 -8 9 -7 1 -7 0
0 -4z"/>
<path d="M2846 7694 c-9 -20 -15 -39 -12 -41 2 -3 12 12 21 32 10 19 16 38 13
40 -2 3 -12 -12 -22 -31z"/>
<path d="M3224 7715 c-10 -8 -15 -15 -11 -15 4 0 3 -10 -4 -21 -6 -12 -7 -19
-2 -17 4 3 22 -2 38 -12 22 -12 29 -23 27 -41 -3 -23 -2 -23 13 -5 8 11 15 30
15 43 0 13 5 23 12 23 6 0 9 2 7 5 -3 2 -20 0 -38 -5 -34 -10 -61 -4 -61 12 0
7 5 6 14 -1 7 -6 21 -8 30 -5 15 6 15 8 -4 21 -11 8 -18 19 -15 24 9 13 2 11
-21 -6z"/>
<path d="M3341 7699 c-7 -12 -10 -23 -8 -26 3 -3 11 5 17 17 15 28 8 35 -9 9z"/>
<path d="M2766 7614 c-4 -9 -4 -19 -1 -22 2 -3 7 3 11 12 4 9 4 19 1 22 -2 3
-7 -3 -11 -12z"/>
<path d="M2791 7558 c-6 -17 -9 -34 -6 -36 8 -8 15 2 25 37 11 41 -5 40 -19
-1z"/>
<path d="M2525 7570 c-19 -8 -19 -9 3 -9 12 -1 22 4 22 9 0 6 -1 10 -2 9 -2 0
-12 -4 -23 -9z"/>
<path d="M2515 7540 c3 -5 8 -10 11 -10 2 0 4 5 4 10 0 6 -5 10 -11 10 -5 0
-7 -4 -4 -10z"/>
<path d="M2958 7543 c7 -3 16 -2 19 1 4 3 -2 6 -13 5 -11 0 -14 -3 -6 -6z"/>
<path d="M3191 7524 c0 -11 3 -14 6 -6 3 7 2 16 -1 19 -3 4 -6 -2 -5 -13z"/>
<path d="M2711 7489 c-13 -38 -13 -39 -2 -39 8 0 17 20 26 58 7 26 -14 10 -24
-19z"/>
<path d="M7558 7473 c7 -3 16 -2 19 1 4 3 -2 6 -13 5 -11 0 -14 -3 -6 -6z"/>
<path d="M7558 7453 c7 -3 16 -2 19 1 4 3 -2 6 -13 5 -11 0 -14 -3 -6 -6z"/>
<path d="M7223 7323 c9 -2 23 -2 30 0 6 3 -1 5 -18 5 -16 0 -22 -2 -12 -5z"/>
<path d="M7218 7303 c7 -3 16 -2 19 1 4 3 -2 6 -13 5 -11 0 -14 -3 -6 -6z"/>
<path d="M7752 6903 c-7 -21 -17 -67 -23 -103 -5 -36 -19 -99 -29 -140 -10
-41 -21 -97 -25 -125 l-6 -50 24 45 c32 59 65 205 74 319 3 50 4 91 1 91 -3 0
-10 -17 -16 -37z"/>
<path d="M2696 6100 c-41 -126 -106 -431 -105 -490 l1 -45 23 70 c13 39 26 86
29 105 3 19 12 67 21 105 42 190 56 267 53 288 -3 16 -9 8 -22 -33z"/>
<path d="M7476 6064 c-10 -14 -16 -33 -14 -42 3 -13 10 -8 26 18 12 19 22 38
22 43 0 16 -18 6 -34 -19z"/>
<path d="M2522 5573 c-6 -16 -13 -36 -16 -47 -6 -18 -34 -150 -41 -191 -2 -11
-12 -67 -22 -125 -13 -79 -18 -160 -18 -322 0 -119 3 -220 8 -224 17 -18 22
17 24 175 1 92 6 219 12 282 10 104 44 328 55 368 7 23 16 111 12 111 -2 0 -8
-12 -14 -27z"/>
<path d="M7625 5195 c-17 -14 -24 -23 -16 -19 8 4 4 -6 -7 -22 -27 -37 -54
-148 -42 -177 8 -22 8 -22 18 3 5 14 22 61 37 105 15 44 31 88 37 98 17 33 2
40 -27 12z"/>
<path d="M7137 5203 c-9 -9 70 -79 106 -94 15 -6 31 -9 34 -5 13 13 -13 41
-67 74 -57 34 -63 36 -73 25z"/>
<path d="M2323 4638 c-11 -22 -40 -87 -77 -170 -9 -20 -16 -41 -16 -47 0 -6
-4 -19 -9 -29 -24 -43 -62 -155 -57 -168 3 -7 1 -16 -4 -19 -6 -4 -10 -12 -9
-18 0 -9 2 -9 6 1 2 6 14 12 24 12 11 0 18 4 14 9 -9 16 32 23 54 10 30 -20
75 3 67 34 -4 16 1 27 14 37 11 8 16 17 11 20 -5 3 -12 23 -16 44 -5 25 -4 37
2 33 6 -4 10 14 10 43 0 29 -5 50 -11 50 -8 0 -8 3 0 8 6 4 11 14 11 22 0 8 4
23 8 33 4 9 3 17 -2 17 -6 0 -8 21 -5 50 5 55 1 62 -15 28z"/>
<path d="M2546 3690 c6 -115 12 -139 34 -125 16 10 4 120 -21 188 l-18 52 5
-115z"/>
<path d="M2090 3746 c0 -9 30 -14 35 -6 4 6 -3 10 -14 10 -12 0 -21 -2 -21 -4z"/>
<path d="M8292 3669 c-13 -5 -35 -18 -49 -29 l-26 -20 37 0 c35 0 76 27 76 50
0 12 -7 12 -38 -1z"/>
<path d="M8313 3613 c9 -2 23 -2 30 0 6 3 -1 5 -18 5 -16 0 -22 -2 -12 -5z"/>
<path d="M7760 3600 c0 -5 5 -10 10 -10 6 0 10 5 10 10 0 6 -4 10 -10 10 -5 0
-10 -4 -10 -10z"/>
<path d="M8207 3599 c8 -8 16 -8 30 0 16 9 14 10 -11 11 -22 0 -27 -3 -19 -11z"/>
<path d="M8020 3575 l-45 -13 55 -1 c30 -1 70 -5 87 -10 20 -6 35 -6 38 0 4 5
-5 9 -19 9 -18 0 -24 4 -20 15 8 19 -31 19 -96 0z"/>
<path d="M2510 3545 c0 -18 5 -25 20 -25 13 0 18 5 14 15 -5 12 -2 13 12 8 18
-6 18 -6 2 10 -25 25 -48 21 -48 -8z"/>
<path d="M2328 3553 c7 -3 16 -2 19 1 4 3 -2 6 -13 5 -11 0 -14 -3 -6 -6z"/>
<path d="M2566 3522 c-2 -4 -1 -35 3 -70 7 -60 7 -62 -16 -62 -24 0 -27 -7
-17 -34 7 -17 34 -22 34 -7 0 5 10 11 23 13 17 2 22 9 20 31 -1 15 2 25 6 23
5 -3 1 19 -8 49 -15 50 -34 75 -45 57z m41 -148 c-3 -3 -12 -4 -19 -1 -8 3 -5
6 6 6 11 1 17 -2 13 -5z"/>
<path d="M2418 3403 c7 -3 16 -2 19 1 4 3 -2 6 -13 5 -11 0 -14 -3 -6 -6z"/>
<path d="M910 3346 c0 -3 18 -15 41 -26 32 -17 44 -19 55 -9 24 20 16 27 -29
26 -24 0 -49 3 -55 7 -7 4 -12 5 -12 2z"/>
<path d="M2580 3346 c0 -3 5 -17 10 -31 7 -18 15 -25 26 -21 8 3 12 2 9 -4 -3
-6 -2 -10 3 -10 19 0 22 43 4 56 -16 13 -52 19 -52 10z"/>
<path d="M2420 3239 c0 -5 5 -7 10 -4 6 3 10 8 10 11 0 2 -4 4 -10 4 -5 0 -10
-5 -10 -11z"/>
<path d="M2674 3175 c-3 -8 -4 -20 -2 -27 3 -7 7 -1 10 15 6 29 1 36 -8 12z"/>
<path d="M8457 3070 c-3 -11 -1 -20 4 -20 5 0 6 -18 3 -40 -5 -28 -3 -40 5
-40 7 0 9 -5 6 -10 -4 -6 0 -22 9 -35 9 -14 17 -36 18 -50 1 -14 6 -25 10 -25
4 0 8 -12 8 -26 0 -16 4 -23 11 -18 6 3 9 19 7 35 -3 15 -1 26 4 23 13 -8 9
-82 -4 -87 -10 -4 -10 -6 -1 -6 6 -1 15 4 18 9 3 6 15 10 26 10 13 0 19 7 19
24 0 18 7 25 30 30 17 3 44 3 60 0 28 -6 30 -4 30 22 1 25 2 26 11 12 12 -21
47 -24 55 -5 4 10 18 12 60 6 31 -4 65 -4 75 0 18 6 17 9 -11 36 -16 16 -30
23 -30 17 0 -7 -16 -12 -40 -12 -38 0 -54 14 -28 22 7 3 -9 8 -37 11 -27 4
-58 16 -69 26 -12 11 -36 22 -54 24 -19 3 -39 12 -45 21 -7 8 -25 20 -40 25
-24 10 -29 8 -36 -11 -8 -21 -8 -21 -15 5 -8 33 -23 35 -29 5 -4 -20 -4 -20
-6 4 -1 33 -17 45 -24 18z"/>
<path d="M2835 2890 c3 -5 8 -10 11 -10 2 0 4 5 4 10 0 6 -5 10 -11 10 -5 0
-7 -4 -4 -10z"/>
<path d="M8800 2846 c0 -9 17 -16 45 -20 53 -8 85 -1 85 20 0 11 -15 14 -65
14 -49 0 -65 -3 -65 -14z"/>
<path d="M8960 2846 c0 -9 7 -12 20 -9 11 3 20 9 20 14 0 5 -9 9 -20 9 -11 0
-20 -6 -20 -14z"/>
<path d="M568 2533 c6 -2 18 -2 25 0 6 3 1 5 -13 5 -14 0 -19 -2 -12 -5z"/>
<path d="M688 2533 c18 -2 45 -2 60 0 15 2 0 4 -33 4 -33 0 -45 -2 -27 -4z"/>
<path d="M788 2533 c7 -3 16 -2 19 1 4 3 -2 6 -13 5 -11 0 -14 -3 -6 -6z"/>
<path d="M1049 2527 c-9 -7 -33 -12 -53 -11 -20 1 -34 -2 -31 -6 3 -5 15 -6
27 -2 11 3 19 1 16 -4 -4 -5 10 -9 30 -9 19 0 37 6 40 13 2 6 -1 12 -8 12 -6
0 -8 5 -5 10 8 13 4 12 -16 -3z m16 -17 c3 -5 1 -10 -4 -10 -6 0 -11 5 -11 10
0 6 2 10 4 10 3 0 8 -4 11 -10z"/>
<path d="M1125 2520 c2 -11 0 -20 -6 -20 -5 0 -9 8 -9 18 0 14 -2 15 -10 2 -6
-10 -6 -16 0 -18 6 -2 8 -8 5 -12 -3 -5 15 -2 40 6 25 9 45 20 45 25 0 4 -7 5
-17 2 -9 -4 -14 -2 -10 3 3 5 -5 11 -18 12 -19 1 -23 -3 -20 -18z"/>
<path d="M2142 2516 c-8 -19 -8 -27 3 -36 7 -6 17 -10 21 -9 32 5 37 -2 31
-45 -6 -38 -4 -45 14 -49 15 -4 23 1 30 20 17 45 18 83 2 83 -8 0 -11 5 -7 13
6 10 4 10 -7 0 -20 -19 -51 -16 -47 5 3 19 -9 42 -21 42 -4 0 -13 -11 -19 -24z"/>
<path d="M508 2513 c7 -3 16 -2 19 1 4 3 -2 6 -13 5 -11 0 -14 -3 -6 -6z"/>
<path d="M558 2513 c12 -2 32 -2 45 0 12 2 2 4 -23 4 -25 0 -35 -2 -22 -4z"/>
<path d="M888 2513 c6 -2 18 -2 25 0 6 3 1 5 -13 5 -14 0 -19 -2 -12 -5z"/>
<path d="M1130 2480 c-12 -7 -10 -9 8 -7 12 0 22 5 22 9 0 11 -12 10 -30 -2z"/>
<path d="M2120 2366 c0 -8 -3 -21 -6 -30 -3 -9 -1 -16 5 -16 20 0 38 23 33 42
-5 21 -32 24 -32 4z"/>
<path d="M2110 2300 c0 -5 5 -10 10 -10 6 0 10 5 10 10 0 6 -4 10 -10 10 -5 0
-10 -4 -10 -10z"/>
<path d="M2180 2285 c-8 -10 -9 -23 -3 -41 l9 -27 11 37 c12 38 3 55 -17 31z"/>
<path d="M8040 1770 c0 -5 20 -10 45 -10 25 0 45 5 45 10 0 6 -20 10 -45 10
-25 0 -45 -4 -45 -10z"/>
<path d="M8140 1770 c0 -5 9 -10 21 -10 11 0 17 5 14 10 -3 6 -13 10 -21 10
-8 0 -14 -4 -14 -10z"/>
<path d="M8075 1720 c7 -12 115 -11 115 1 0 5 -27 9 -61 9 -37 0 -58 -4 -54
-10z"/>
<path d="M8107 1674 c-11 -12 17 -55 40 -61 32 -7 46 8 37 41 -5 21 -12 26
-38 26 -18 0 -35 -3 -39 -6z"/>
<path d="M7936 1208 c3 -4 9 -8 15 -8 5 0 9 4 9 8 0 5 -7 9 -15 9 -8 0 -12 -4
-9 -9z"/>
<path d="M1693 878 c2 -15 6 -30 10 -34 10 -10 8 17 -3 41 -8 17 -9 16 -7 -7z"/>
<path d="M5394 846 c-3 -8 -4 -23 -2 -33 3 -11 6 -6 9 15 6 34 2 42 -7 18z"/>
<path d="M5371 833 c-1 -6 -4 -20 -7 -30 -5 -17 -5 -17 6 0 6 10 9 23 6 30 -3
9 -5 9 -5 0z"/>
</g>
</svg>
