<?xml version="1.0" standalone="no"?>
<!DOCTYPE svg PUBLIC "-//W3C//DTD SVG 20010904//EN"
 "http://www.w3.org/TR/2001/REC-SVG-20010904/DTD/svg10.dtd">
<svg version="1.0" xmlns="http://www.w3.org/2000/svg"
 width="400.000000pt" height="400.000000pt" viewBox="0 0 400.000000 400.000000"
 preserveAspectRatio="xMidYMid meet">
<metadata>
Created by potrace 1.14, written by Peter Selinger 2001-2017
</metadata>
<g transform="translate(0.000000,400.000000) scale(0.100000,-0.100000)"
fill="#000000" stroke="none">
<path d="M3193 3003 c9 -2 23 -2 30 0 6 3 -1 5 -18 5 -16 0 -22 -2 -12 -5z"/>
<path d="M3526 2824 c45 -43 91 -98 103 -121 12 -24 24 -43 26 -43 9 0 -27 63
-66 116 -34 46 -88 96 -129 119 -8 5 22 -27 66 -71z"/>
<path d="M3700 2855 c8 -11 25 -31 37 -44 36 -37 108 -179 132 -258 37 -125
47 -204 55 -433 6 -147 16 -251 37 -375 11 -66 22 -140 24 -164 3 -24 7 -46
10 -49 3 -3 5 218 5 491 0 490 0 497 -20 497 -18 0 -20 -7 -21 -62 l-1 -63
-14 63 c-19 88 -41 149 -71 201 -42 73 -109 156 -150 187 -25 18 -33 22 -23 9z"/>
<path d="M3659 2805 c6 -11 20 -31 31 -45 15 -17 18 -19 11 -5 -6 11 -20 31
-31 45 -15 17 -18 19 -11 5z"/>
<path d="M2887 2748 c-48 -68 -82 -138 -66 -138 5 0 9 4 9 9 0 13 64 119 96
159 15 17 22 32 16 32 -6 0 -31 -28 -55 -62z"/>
<path d="M3105 2759 c-4 -6 -5 -12 -2 -15 2 -3 7 2 10 11 7 17 1 20 -8 4z"/>
<path d="M3302 2745 c0 -11 3 -29 8 -40 11 -25 11 1 0 35 -6 20 -8 21 -8 5z"/>
<path d="M2749 2733 c-13 -16 -12 -17 4 -4 16 13 21 21 13 21 -2 0 -10 -8 -17
-17z"/>
<path d="M3721 2710 c14 -31 19 -36 19 -24 0 6 -7 19 -16 30 -14 18 -14 18 -3
-6z"/>
<path d="M3087 2691 c-4 -18 -7 -43 -6 -55 1 -11 5 -1 10 24 5 25 7 49 6 55
-2 5 -7 -5 -10 -24z"/>
<path d="M2951 2677 c-22 -57 -41 -135 -46 -186 -3 -30 -8 -57 -10 -61 -6 -9
-96 -33 -102 -26 -3 2 0 44 6 92 12 96 9 117 -9 57 -29 -103 -40 -418 -15
-478 4 -11 -4 -4 -19 14 -45 59 -69 137 -74 241 -3 61 -8 88 -13 75 -17 -43
-9 -159 17 -250 5 -15 3 -17 -5 -9 -18 17 -41 113 -42 179 l-1 60 -10 -40 c-9
-38 -5 -153 8 -192 4 -14 4 -15 -4 -4 -18 26 -25 -43 -8 -80 15 -32 15 -28 2
31 -5 23 -2 26 23 28 25 2 29 -3 43 -45 20 -66 23 -352 4 -457 -7 -43 -11 -88
-8 -99 3 -14 1 -18 -6 -13 -8 4 -12 0 -12 -11 0 -29 -30 -155 -46 -190 -18
-43 -12 -42 18 5 14 20 42 46 63 57 l37 20 -7 95 c-4 52 -9 214 -11 359 l-4
265 28 -45 c16 -24 38 -52 49 -61 19 -18 19 -17 1 55 -10 39 -17 97 -16 127
l3 54 28 -84 c26 -76 29 -102 37 -299 11 -264 18 -358 28 -393 l7 -27 62 30
c35 17 68 39 73 50 6 10 18 19 27 19 13 0 14 -2 2 -17 -8 -9 -9 -14 -2 -10 6
4 14 1 17 -5 6 -13 2 28 -10 111 l-7 44 29 -21 c16 -12 44 -25 62 -28 30 -6
32 -5 32 20 0 20 5 26 23 26 13 1 -22 23 -88 57 -63 33 -127 75 -151 98 -37
38 -43 51 -67 152 -15 61 -30 119 -33 130 -4 11 4 6 19 -12 l25 -30 -5 61 c-5
54 -3 64 16 83 29 29 41 27 29 -6 -7 -20 -7 -41 1 -71 l12 -43 18 22 18 23 12
-22 c11 -20 34 -32 29 -14 -2 4 5 18 14 31 14 20 20 22 32 12 20 -17 26 -1 16
44 -5 22 -8 41 -6 42 7 7 39 -39 74 -110 l39 -77 25 32 c33 46 58 86 58 95 0
4 -12 -10 -26 -32 -41 -62 -47 -65 -40 -20 5 34 4 36 -5 15 -5 -13 -8 -36 -5
-50 3 -14 -6 -2 -19 25 -14 28 -25 56 -25 63 0 6 -4 12 -10 12 -5 0 -7 8 -4
18 5 13 4 14 -4 3 -7 -10 -13 -2 -25 30 -29 80 -40 153 -41 256 -1 57 -4 103
-8 103 -5 0 -8 -6 -8 -12 0 -7 -5 -30 -11 -51 -10 -37 -27 -49 -99 -72 -23 -7
-23 -7 -17 66 4 41 13 99 21 129 15 58 13 80 -3 37z m74 -291 c-6 -58 -10 -66
-29 -67 -20 -2 -20 -2 2 -6 34 -7 26 -30 -14 -38 -42 -7 -52 -2 -34 20 10 12
10 15 -4 15 -13 0 -16 11 -16 53 l0 53 48 20 c26 12 49 20 50 18 2 -1 1 -32
-3 -68z m-140 -73 c-4 -54 -14 -111 -22 -127 l-15 -30 -15 35 c-15 35 -43 151
-43 181 0 10 13 20 38 26 67 18 65 22 57 -85z m179 50 c5 -38 4 -43 -13 -43
-13 0 -18 6 -16 18 18 87 19 88 29 25z m-144 -38 c0 -19 -4 -35 -10 -35 -11 0
-13 30 -4 54 10 25 14 19 14 -19z m155 -41 c9 -9 14 -18 12 -20 -7 -8 -57 15
-57 26 0 15 27 12 45 -6z m-145 -14 c0 -5 -9 -14 -20 -20 -17 -9 -20 -8 -20
10 0 13 7 20 20 20 11 0 20 -4 20 -10z m79 -57 c-1 -16 -4 -41 -8 -58 l-6 -30
-18 45 c-18 42 -18 45 -1 57 27 19 34 16 33 -14z m-305 -795 c4 -17 2 -28 -4
-28 -5 0 -10 14 -10 32 0 36 4 35 14 -4z"/>
<path d="M3320 2668 c0 -7 5 -46 10 -87 9 -64 8 -76 -6 -86 -15 -11 -15 -12 0
-18 30 -12 12 -146 -38 -292 -5 -13 -2 -11 7 5 20 34 57 148 58 179 1 15 6 2
13 -29 11 -49 10 -57 -6 -75 -11 -13 -14 -25 -8 -34 7 -12 13 -12 35 3 15 10
29 15 32 12 3 -3 -2 -8 -11 -12 -13 -5 -16 -21 -16 -85 0 -67 2 -77 16 -72 8
3 13 11 10 18 -2 7 1 21 8 31 13 17 14 17 31 1 15 -16 20 -16 39 -3 29 19 51
6 43 -25 l-6 -24 19 24 c13 14 18 32 15 47 -3 13 -7 36 -10 52 l-6 27 31 -35
c27 -29 30 -39 25 -69 -6 -31 -5 -33 9 -22 13 11 17 11 20 0 2 -8 7 -21 9 -29
3 -8 6 12 7 45 1 42 4 54 10 40 12 -30 0 140 -15 208 -7 33 -8 57 -3 57 5 0 2
7 -6 16 -9 8 -16 25 -17 37 0 12 -8 47 -19 77 -14 42 -18 49 -19 28 -1 -15 4
-50 10 -78 6 -28 9 -53 7 -55 -2 -2 -26 2 -53 9 l-50 12 -23 79 c-12 43 -25
81 -28 84 -6 6 4 -101 12 -131 6 -20 -11 -23 -64 -12 -29 6 -30 8 -47 100 -9
52 -19 94 -21 94 -2 0 -4 -6 -4 -12z m128 -214 c7 -2 12 -23 12 -57 0 -46 -3
-56 -22 -66 l-23 -11 23 6 c19 5 23 2 20 -12 -4 -23 -68 -39 -68 -18 0 8 5 14
10 14 6 0 10 5 10 10 0 6 -5 9 -12 8 -12 -3 -26 55 -27 114 -1 26 1 27 32 22
17 -3 38 -7 45 -10z m142 -24 c11 -7 14 -28 13 -89 -1 -44 -4 -85 -8 -91 -8
-13 -65 28 -65 47 0 11 5 11 23 3 19 -10 19 -8 -4 12 -15 13 -30 39 -34 58 -3
19 -9 43 -11 53 -4 14 1 17 33 17 21 0 45 -5 53 -10z m-91 -72 c1 -10 -3 -18
-9 -18 -5 0 -10 19 -9 43 1 36 2 38 9 17 4 -14 8 -33 9 -42z m140 -94 c9 -77
6 -94 -15 -67 -14 19 -18 82 -8 121 9 33 13 23 23 -54z m-129 41 c0 -17 -2
-18 -24 -9 -23 9 -20 24 4 24 11 0 20 -7 20 -15z m-64 -72 c-2 -10 -10 -37
-17 -60 -7 -24 -17 -43 -22 -43 -13 0 -3 86 13 105 17 20 32 19 26 -2z"/>
<path d="M2695 2649 c-4 -6 -5 -12 -2 -15 2 -3 7 2 10 11 7 17 1 20 -8 4z"/>
<path d="M2670 2600 c-6 -11 -8 -20 -6 -20 3 0 10 9 16 20 6 11 8 20 6 20 -3
0 -10 -9 -16 -20z"/>
<path d="M2601 2561 c-9 -6 -10 -11 -2 -15 6 -4 11 -16 11 -27 0 -26 -36 -96
-52 -102 -10 -4 -10 -7 1 -15 11 -8 11 -10 0 -15 -23 -8 6 -30 29 -23 14 5 21
19 25 50 6 39 20 88 42 139 6 13 2 17 -16 17 -13 0 -30 -4 -38 -9z"/>
<path d="M0 1280 l0 -1280 1068 0 1067 0 14 32 c8 18 15 55 15 83 1 50 57 248
64 226 2 -6 -8 -46 -22 -88 -14 -43 -29 -100 -32 -128 -6 -48 -6 -49 10 -28
20 26 96 195 96 212 0 6 11 34 24 63 26 56 69 176 106 293 13 39 25 76 27 82
3 7 1 13 -5 13 -8 0 -126 -243 -168 -349 -10 -25 -19 -40 -21 -34 -5 13 47
134 134 312 49 102 67 131 75 120 8 -11 9 -11 5 2 -3 9 6 47 19 84 14 38 23
74 20 82 -3 7 -1 13 5 13 6 0 9 6 6 13 -3 8 18 102 23 102 0 0 -399 -1 -887
-3 -989 -3 -976 -4 -1089 63 -178 105 -271 330 -219 528 31 118 110 230 201
283 l41 24 6 123 c6 129 23 205 73 319 15 34 36 75 47 91 l18 27 -360 0 -361
0 0 -1280z m1120 -320 c0 -23 -109 -303 -125 -321 -68 -74 -200 -21 -199 80 0
29 60 211 80 243 7 12 244 10 244 -2z m425 -7 c-3 -10 -56 -155 -117 -323 -60
-168 -117 -313 -126 -324 -64 -71 -176 -48 -203 42 -11 39 10 106 176 550 l27
72 125 0 c115 0 125 -1 118 -17z m425 8 c0 -5 -36 -110 -81 -232 -92 -257
-107 -279 -185 -279 -39 0 -51 5 -80 34 -50 50 -46 82 31 292 36 97 68 180 71
185 7 12 244 12 244 0z m425 -8 c-4 -10 -56 -155 -117 -323 -60 -168 -119
-315 -130 -327 -66 -71 -182 -38 -203 57 -6 26 49 190 186 554 l20 56 126 0
c115 0 125 -1 118 -17z"/>
<path d="M3716 2520 c21 -142 15 -252 -21 -355 -6 -18 -5 -18 5 -2 6 9 17 14
23 11 7 -4 9 -4 5 1 -4 4 -2 15 5 23 18 22 14 222 -6 297 -9 33 -14 44 -11 25z"/>
<path d="M3781 2534 c0 -11 3 -14 6 -6 3 7 2 16 -1 19 -3 4 -6 -2 -5 -13z"/>
<path d="M3792 2480 c0 -14 2 -19 5 -12 2 6 2 18 0 25 -3 6 -5 1 -5 -13z"/>
<path d="M3247 2425 c-4 -22 -6 -56 -6 -75 1 -22 5 -11 10 30 10 72 6 108 -4
45z"/>
<path d="M3803 2415 c0 -22 2 -30 4 -17 2 12 2 30 0 40 -3 9 -5 -1 -4 -23z"/>
<path d="M3103 2390 c0 -30 2 -43 4 -27 2 15 2 39 0 55 -2 15 -4 2 -4 -28z"/>
<path d="M3813 2300 c0 -36 2 -50 4 -32 2 17 2 47 0 65 -2 17 -4 3 -4 -33z"/>
<path d="M2561 2334 c0 -11 3 -14 6 -6 3 7 2 16 -1 19 -3 4 -6 -2 -5 -13z"/>
<path d="M2591 2334 c0 -11 3 -14 6 -6 3 7 2 16 -1 19 -3 4 -6 -2 -5 -13z"/>
<path d="M2505 2320 c-3 -5 -15 -10 -26 -10 -20 0 -96 -55 -132 -95 -23 -26
-42 -61 -67 -124 -23 -60 -14 -67 16 -13 35 60 102 130 168 174 60 41 76 55
76 71 0 11 -28 9 -35 -3z"/>
<path d="M3111 2309 c0 -13 4 -33 9 -44 7 -14 8 -8 3 20 -7 46 -13 59 -12 24z"/>
<path d="M2553 2275 c0 -22 2 -30 4 -17 2 12 2 30 0 40 -3 9 -5 -1 -4 -23z"/>
<path d="M3227 2251 c-4 -35 -5 -66 -3 -68 6 -7 19 103 14 119 -3 7 -8 -16
-11 -51z"/>
<path d="M2319 2273 c-13 -16 -12 -17 4 -4 9 7 17 15 17 17 0 8 -8 3 -21 -13z"/>
<path d="M2602 2220 c0 -14 2 -19 5 -12 2 6 2 18 0 25 -3 6 -5 1 -5 -13z"/>
<path d="M3131 2224 c0 -11 3 -14 6 -6 3 7 2 16 -1 19 -3 4 -6 -2 -5 -13z"/>
<path d="M3807 1968 c-8 -320 -29 -488 -77 -594 -25 -57 -35 -53 -20 7 6 24
12 109 15 189 2 80 2 132 -1 115 -30 -203 -71 -316 -136 -377 -36 -34 -48 -35
-48 -5 -1 19 -2 20 -10 5 -6 -9 -7 -23 -4 -32 5 -14 9 -14 33 -2 27 15 96 86
117 122 18 30 25 12 15 -42 -5 -27 -7 -51 -4 -54 9 -9 48 48 68 100 14 37 24
49 35 44 8 -3 20 -7 25 -8 13 -3 107 -55 149 -82 l33 -21 1 30 c0 17 -5 44
-12 61 -7 17 -19 55 -25 83 -7 29 -16 51 -19 49 -4 -2 -7 10 -8 27 -1 18 -7
52 -14 77 -10 38 -14 42 -21 25 -6 -16 -8 -17 -8 -3 -1 9 4 20 9 23 6 4 8 10
6 13 -12 19 -70 363 -68 402 2 34 -1 41 -9 30 -7 -11 -8 -4 -4 28 4 24 3 42
-3 42 -5 0 -12 -105 -15 -252z m30 30 c-3 -7 -5 -2 -5 12 0 14 2 19 5 13 2 -7
2 -19 0 -25z m10 -50 c-3 -7 -5 -2 -5 12 0 14 2 19 5 13 2 -7 2 -19 0 -25z
m10 -60 c-3 -8 -6 -5 -6 6 -1 11 2 17 5 13 3 -3 4 -12 1 -19z m-152 -427 c3
-5 1 -12 -5 -16 -5 -3 -10 1 -10 9 0 18 6 21 15 7z"/>
<path d="M2244 2142 c-6 -4 -15 -18 -19 -32 -8 -28 -6 -27 18 13 19 29 19 31
1 19z"/>
<path d="M3671 2131 c-8 -5 -9 -11 -3 -15 5 -3 12 1 16 9 6 17 6 18 -13 6z"/>
<path d="M2650 2081 c0 -5 5 -13 10 -16 6 -3 10 -2 10 4 0 5 -4 13 -10 16 -5
3 -10 2 -10 -4z"/>
<path d="M3448 2053 c7 -3 16 -2 19 1 4 3 -2 6 -13 5 -11 0 -14 -3 -6 -6z"/>
<path d="M2650 2010 c6 -11 13 -20 16 -20 2 0 0 9 -6 20 -6 11 -13 20 -16 20
-2 0 0 -9 6 -20z"/>
<path d="M3630 1995 c0 -45 -48 -141 -92 -182 -18 -17 -80 -56 -138 -87 -104
-55 -125 -71 -52 -40 91 39 84 40 80 -16 -1 -27 -2 -50 0 -50 15 0 78 34 88
48 20 26 34 -1 23 -47 -12 -52 -11 -64 5 -58 8 3 20 -1 27 -9 14 -17 22 -11
26 19 1 12 9 81 17 152 21 178 30 305 22 305 -3 0 -6 -16 -6 -35z"/>
<path d="M2765 1480 c2 -115 0 -187 -5 -175 -5 11 -9 33 -9 48 -1 16 -5 26
-10 23 -8 -5 8 -99 20 -110 3 -4 13 15 21 41 9 27 18 48 21 48 3 0 16 -16 29
-35 37 -54 109 -85 79 -33 -6 10 -11 12 -11 5 0 -22 -44 14 -67 55 -26 49 -41
105 -58 228 l-15 100 5 -195z"/>
<path d="M3234 1596 c11 -9 23 -16 27 -16 4 0 9 -10 11 -22 3 -19 5 -17 9 8 4
23 2 31 -7 27 -7 -2 -23 1 -36 7 -22 11 -22 10 -4 -4z"/>
<path d="M3253 1480 c0 -36 2 -50 4 -32 2 17 2 47 0 65 -2 17 -4 3 -4 -33z"/>
<path d="M3570 1489 c0 -17 -7 -58 -16 -91 -8 -33 -13 -62 -11 -65 4 -4 47
162 47 181 0 3 -4 6 -10 6 -5 0 -10 -14 -10 -31z"/>
<path d="M3521 1459 c-7 -12 -10 -23 -8 -26 3 -3 11 5 17 17 15 28 8 35 -9 9z"/>
<path d="M3351 1454 c0 -11 3 -14 6 -6 3 7 2 16 -1 19 -3 4 -6 -2 -5 -13z"/>
<path d="M3060 1438 c0 -9 5 -20 10 -23 13 -8 13 5 0 25 -8 13 -10 13 -10 -2z"/>
<path d="M3436 1427 c3 -10 9 -15 12 -12 3 3 0 11 -7 18 -10 9 -11 8 -5 -6z"/>
<path d="M2893 1385 c0 -27 2 -38 4 -22 2 15 2 37 0 50 -2 12 -4 0 -4 -28z"/>
<path d="M3100 1404 c0 -8 111 -57 116 -52 2 3 -23 16 -56 31 -33 14 -60 23
-60 21z"/>
<path d="M3356 1395 c-3 -8 -1 -15 4 -15 6 0 10 7 10 15 0 8 -2 15 -4 15 -2 0
-6 -7 -10 -15z"/>
<path d="M3241 1363 c-1 -13 -7 -23 -14 -23 -7 0 -14 -10 -14 -22 -1 -13 1
-18 5 -12 4 6 14 15 23 20 11 6 13 16 8 34 -7 24 -7 24 -8 3z"/>
<path d="M2669 1323 c-13 -16 -12 -17 4 -4 16 13 21 21 13 21 -2 0 -10 -8 -17
-17z"/>
<path d="M3930 1336 c0 -2 8 -10 18 -17 15 -13 16 -12 3 4 -13 16 -21 21 -21
13z"/>
<path d="M3834 1208 c-15 -29 -43 -78 -64 -108 -45 -67 -52 -80 -47 -80 8 0
117 167 132 203 22 54 10 45 -21 -15z"/>
<path d="M3510 1246 c0 -2 9 -6 20 -9 11 -3 18 -1 14 4 -5 9 -34 13 -34 5z"/>
<path d="M3981 1234 c0 -11 3 -14 6 -6 3 7 2 16 -1 19 -3 4 -6 -2 -5 -13z"/>
<path d="M2712 1195 c0 -16 2 -22 5 -12 2 9 2 23 0 30 -3 6 -5 -1 -5 -18z"/>
<path d="M3220 1185 c0 -8 4 -15 10 -15 5 0 7 7 4 15 -4 8 -8 15 -10 15 -2 0
-4 -7 -4 -15z"/>
<path d="M3561 1174 c0 -11 3 -14 6 -6 3 7 2 16 -1 19 -3 4 -6 -2 -5 -13z"/>
<path d="M3922 1151 c-17 -17 -32 -33 -32 -37 0 -5 16 7 35 26 32 31 39 40 32
40 -1 0 -17 -13 -35 -29z"/>
<path d="M3992 1160 c0 -14 2 -19 5 -12 2 6 2 18 0 25 -3 6 -5 1 -5 -13z"/>
<path d="M3240 1110 c0 -27 4 -51 8 -54 5 -3 7 8 4 23 -2 16 1 38 7 49 8 16 7
21 -4 26 -12 4 -15 -4 -15 -44z"/>
<path d="M3571 1140 c0 -8 4 -22 9 -30 12 -18 12 -2 0 25 -6 13 -9 15 -9 5z"/>
<path d="M2722 1110 c0 -14 2 -19 5 -12 2 6 2 18 0 25 -3 6 -5 1 -5 -13z"/>
<path d="M3852 1087 c-31 -33 -27 -43 4 -12 14 14 24 28 22 31 -3 2 -14 -6
-26 -19z"/>
<path d="M2528 993 c-19 -54 -39 -107 -43 -117 -6 -14 -5 -17 3 -12 16 10 15
-15 -2 -61 -8 -21 -24 -72 -36 -113 -34 -115 -110 -350 -130 -400 -36 -91 -80
-236 -80 -262 0 -23 4 -28 26 -28 18 0 25 5 23 18 -1 9 1 24 4 32 3 8 11 39
17 68 20 89 67 226 78 230 7 2 5 -16 -4 -50 -8 -29 -18 -108 -21 -175 l-6
-123 77 0 c54 0 76 4 76 13 0 6 -7 57 -15 112 -8 55 -14 160 -13 235 l2 135 6
-105 c7 -101 7 -99 6 43 -1 81 2 147 5 147 3 0 9 46 13 103 7 102 38 293 58
355 6 20 7 37 1 43 -5 5 -23 -30 -45 -88z m-12 -110 c-10 -10 -19 5 -10 18 6
11 8 11 12 0 2 -7 1 -15 -2 -18z"/>
<path d="M2735 1035 c3 -27 8 -82 11 -121 10 -104 -2 -179 -29 -193 -22 -11
-22 -11 2 -7 28 6 15 -10 -14 -17 -11 -2 -6 -3 12 -1 36 3 43 -8 43 -66 0 -44
-15 -61 -24 -27 -5 18 -8 20 -16 7 -10 -16 -14 -37 -4 -28 6 7 47 -31 51 -47
1 -5 9 -30 18 -55 14 -41 15 -42 11 -10 -3 19 -10 62 -16 95 -6 33 -15 148
-20 255 -5 107 -14 211 -20 230 -9 33 -9 31 -5 -15z"/>
<path d="M2605 1060 c5 -8 25 -35 45 -60 21 -25 44 -58 53 -75 14 -26 16 -27
17 -9 0 12 -25 49 -56 85 -68 76 -70 78 -59 59z"/>
<path d="M3603 1048 c37 -27 77 -91 77 -122 0 -13 -9 -44 -21 -70 -11 -26 -18
-52 -15 -59 2 -7 5 -4 5 6 1 9 7 17 14 17 23 0 44 -31 71 -104 31 -83 37 -91
29 -42 -3 22 -1 42 7 51 12 14 7 19 -13 16 -5 -1 -14 12 -20 29 -6 16 -16 30
-22 30 -6 0 -6 3 1 8 6 4 14 23 17 42 4 19 4 30 -1 24 -9 -14 -52 -25 -52 -14
0 5 6 11 13 13 6 3 7 6 2 6 -15 1 -6 71 11 96 8 11 14 24 14 30 -1 5 -8 -2
-16 -17 -8 -16 -16 -28 -18 -28 -2 0 -16 20 -30 45 -15 24 -35 49 -46 55 -32
17 -36 10 -7 -12z"/>
<path d="M3498 1043 c6 -2 18 -2 25 0 6 3 1 5 -13 5 -14 0 -19 -2 -12 -5z"/>
<path d="M3260 1031 c0 -6 4 -13 10 -16 6 -3 7 1 4 9 -7 18 -14 21 -14 7z"/>
<path d="M3423 1025 c-18 -8 -33 -16 -33 -19 0 -5 71 22 79 30 9 8 -15 3 -46
-11z"/>
<path d="M3754 984 c-27 -31 -51 -61 -53 -67 -2 -6 17 13 44 43 26 30 54 61
63 68 9 6 11 12 6 12 -6 0 -33 -25 -60 -56z"/>
<path d="M3353 988 c-13 -6 -23 -15 -23 -20 0 -5 11 -1 25 8 37 24 35 30 -2
12z"/>
<path d="M3283 907 c-1 -40 1 -56 8 -46 11 17 12 96 2 102 -5 3 -9 -22 -10
-56z"/>
<path d="M2587 845 c3 -60 7 -112 9 -114 7 -8 2 123 -6 174 -6 34 -7 15 -3
-60z"/>
<path d="M3743 916 c-20 -21 -20 -22 -2 -22 10 0 22 8 25 18 3 10 10 15 16 12
7 -4 8 -2 4 4 -10 16 -17 14 -43 -12z"/>
<path d="M3940 898 c-12 -22 -12 -22 6 -6 10 10 15 20 12 24 -4 3 -12 -5 -18
-18z"/>
<path d="M3993 865 c0 -27 2 -38 4 -22 2 15 2 37 0 50 -2 12 -4 0 -4 -28z"/>
<path d="M2722 865 c0 -11 4 -33 8 -50 7 -27 8 -27 8 -5 0 14 -4 36 -8 50 -6
20 -8 21 -8 5z"/>
<path d="M3900 840 c-12 -16 -19 -30 -16 -30 2 0 14 14 26 30 12 17 19 30 16
30 -2 0 -14 -13 -26 -30z"/>
<path d="M2563 780 c0 -25 2 -35 4 -22 2 12 2 32 0 45 -2 12 -4 2 -4 -23z"/>
<path d="M3859 783 c-13 -16 -12 -17 4 -4 9 7 17 15 17 17 0 8 -8 3 -21 -13z"/>
<path d="M3785 780 c3 -5 8 -10 11 -10 2 0 4 5 4 10 0 6 -5 10 -11 10 -5 0 -7
-4 -4 -10z"/>
<path d="M3633 690 c0 -47 2 -66 4 -42 2 23 2 61 0 85 -2 23 -4 4 -4 -43z"/>
<path d="M2685 745 c-25 -12 -26 -14 -5 -9 14 4 29 10 35 15 12 12 5 11 -30
-6z"/>
<path d="M3810 708 c-16 -29 -30 -60 -30 -68 1 -8 7 0 16 19 8 19 24 49 35 68
11 18 18 33 15 33 -3 0 -19 -24 -36 -52z"/>
<path d="M3982 735 c0 -16 2 -22 5 -12 2 9 2 23 0 30 -3 6 -5 -1 -5 -18z"/>
<path d="M2553 670 c0 -30 2 -43 4 -27 2 15 2 39 0 55 -2 15 -4 2 -4 -28z"/>
<path d="M2600 695 c0 -8 4 -15 10 -15 5 0 8 -6 6 -12 -1 -7 -1 -9 2 -5 2 5
20 -14 38 -42 49 -72 52 -63 4 11 -22 33 -40 65 -40 70 0 4 -4 8 -10 8 -5 0
-10 -7 -10 -15z"/>
<path d="M2984 656 c-3 -8 -4 -25 -2 -38 3 -17 5 -13 9 15 5 38 2 47 -7 23z"/>
<path d="M3290 669 c0 -4 12 -33 27 -65 14 -33 44 -102 65 -154 22 -52 36 -81
33 -65 -12 57 -123 309 -125 284z"/>
<path d="M2622 630 c0 -8 6 -31 13 -50 7 -19 13 -28 13 -20 0 8 -6 31 -13 50
-7 19 -13 28 -13 20z"/>
<path d="M2957 601 c-4 -17 -3 -21 5 -13 5 5 8 16 6 23 -3 8 -7 3 -11 -10z"/>
<path d="M3778 595 c2 -14 6 -25 8 -25 2 0 4 11 4 25 0 14 -4 25 -9 25 -4 0
-6 -11 -3 -25z"/>
<path d="M2543 545 c0 -33 2 -45 4 -27 2 18 2 45 0 60 -2 15 -4 0 -4 -33z"/>
<path d="M3642 575 c-1 -11 3 -38 7 -60 7 -34 9 -35 9 -10 0 35 -15 101 -16
70z"/>
<path d="M2972 550 c0 -14 2 -19 5 -12 2 6 2 18 0 25 -3 6 -5 1 -5 -13z"/>
<path d="M3791 555 c0 -5 6 -21 14 -35 8 -14 14 -20 14 -15 0 6 -6 21 -14 35
-8 14 -14 21 -14 15z"/>
<path d="M3837 538 c63 -47 117 -102 104 -106 -8 -3 0 -12 18 -23 40 -24 41
-24 41 4 0 16 -3 18 -9 8 -7 -11 -10 -11 -17 2 -13 22 -145 137 -157 137 -6 0
3 -10 20 -22z"/>
<path d="M2937 533 c-3 -5 -5 -46 -5 -92 -1 -58 -5 -87 -14 -92 -21 -14 -28
-10 -29 14 -1 17 -3 15 -8 -9 -4 -17 -11 -37 -15 -45 -4 -8 -1 -6 7 4 13 15
15 16 21 2 17 -45 56 27 56 105 0 16 5 32 10 35 16 10 12 45 -6 45 -11 0 -14
6 -9 20 6 19 1 28 -8 13z"/>
<path d="M2996 449 c-9 -50 -15 -93 -13 -96 3 -2 12 37 22 87 9 51 14 94 12
96 -2 3 -12 -37 -21 -87z"/>
<path d="M2650 513 c0 -4 5 -15 10 -23 8 -13 10 -13 10 2 0 9 -4 20 -10 23 -5
3 -10 3 -10 -2z"/>
<path d="M2730 513 c0 -5 10 -18 23 -29 l22 -19 -20 25 c-11 14 -21 27 -22 29
-2 2 -3 0 -3 -6z"/>
<path d="M3222 490 c0 -14 2 -19 5 -12 2 6 2 18 0 25 -3 6 -5 1 -5 -13z"/>
<path d="M3243 455 c0 -22 2 -30 4 -17 2 12 2 30 0 40 -3 9 -5 -1 -4 -23z"/>
<path d="M3820 480 c0 -13 18 -22 24 -11 3 5 -1 11 -9 15 -8 3 -15 1 -15 -4z"/>
<path d="M2670 465 c0 -5 5 -17 10 -25 5 -8 10 -10 10 -5 0 6 -5 17 -10 25 -5
8 -10 11 -10 5z"/>
<path d="M3860 466 c0 -3 14 -12 30 -21 17 -9 30 -13 30 -11 0 3 -13 12 -30
21 -16 9 -30 13 -30 11z"/>
<path d="M2552 435 c0 -16 2 -22 5 -12 2 9 2 23 0 30 -3 6 -5 -1 -5 -18z"/>
<path d="M2737 439 c7 -7 15 -10 18 -7 3 3 -2 9 -12 12 -14 6 -15 5 -6 -5z"/>
<path d="M3661 434 c0 -11 3 -14 6 -6 3 7 2 16 -1 19 -3 4 -6 -2 -5 -13z"/>
<path d="M2802 410 c0 -14 2 -19 5 -12 2 6 2 18 0 25 -3 6 -5 1 -5 -13z"/>
<path d="M2690 415 c0 -5 5 -17 10 -25 5 -8 10 -10 10 -5 0 6 -5 17 -10 25 -5
8 -10 11 -10 5z"/>
<path d="M3904 373 c45 -47 51 -50 62 -35 7 9 16 14 20 10 4 -4 1 -14 -6 -22
-7 -10 -10 -30 -6 -53 4 -25 1 -47 -9 -63 -8 -14 -15 -20 -15 -15 0 6 -16 -19
-35 -54 -46 -85 -81 -121 -117 -121 -17 0 -27 4 -23 10 3 5 -6 26 -21 45 -14
19 -23 35 -20 35 4 0 2 9 -4 20 -6 12 -16 17 -26 13 -12 -4 -15 -18 -12 -64 2
-33 1 -59 -2 -60 -59 -12 -90 -7 -129 21 -24 18 -43 41 -47 57 -6 32 -36 105
-40 100 -2 -1 1 -20 7 -42 5 -22 11 -48 14 -58 6 -26 46 -73 73 -86 14 -7 100
-11 227 -10 l205 0 0 188 0 189 -26 6 c-15 4 -32 2 -40 -5 -12 -10 -21 -6 -47
17 -18 16 -10 5 17 -23z m51 -14 c11 -17 -1 -21 -15 -4 -8 9 -8 15 -2 15 6 0
14 -5 17 -11z"/>
<path d="M3104 275 c0 -77 2 -107 3 -67 2 40 2 103 0 140 -2 37 -3 4 -3 -73z"/>
<path d="M3791 393 c-16 -30 -14 -64 2 -57 10 3 21 -14 35 -53 12 -32 28 -67
36 -78 13 -19 14 -18 9 8 -3 15 -10 27 -15 27 -5 0 -8 6 -5 13 2 6 -2 29 -9
50 -18 50 -5 47 29 -7 15 -24 34 -49 42 -56 15 -12 -57 103 -93 149 l-19 25
-12 -21z"/>
<path d="M2563 365 c0 -22 2 -30 4 -17 2 12 2 30 0 40 -3 9 -5 -1 -4 -23z"/>
<path d="M2812 355 c0 -16 2 -22 5 -12 2 9 2 23 0 30 -3 6 -5 -1 -5 -18z"/>
<path d="M2972 320 c0 -14 2 -19 5 -12 2 6 2 18 0 25 -3 6 -5 1 -5 -13z"/>
<path d="M3353 326 c5 -12 3 -23 -5 -28 -7 -4 -8 -8 -3 -8 6 0 16 4 24 9 12 8
11 12 -4 28 -18 17 -19 17 -12 -1z"/>
<path d="M2721 325 c0 -5 8 -26 19 -45 11 -19 19 -30 19 -25 0 6 -8 26 -19 45
-11 19 -19 31 -19 25z"/>
<path d="M3701 325 c1 -19 18 -51 18 -35 0 8 -4 22 -9 30 -5 8 -9 11 -9 5z"/>
<path d="M2573 285 c0 -22 2 -30 4 -17 2 12 2 30 0 40 -3 9 -5 -1 -4 -23z"/>
<path d="M2821 310 c0 -8 10 -76 24 -150 28 -153 29 -161 14 -140 -9 13 -10
13 -6 0 2 -8 12 -16 23 -18 16 -2 23 8 38 53 23 72 14 84 -10 13 -16 -47 -18
-50 -24 -28 -3 14 -3 42 1 63 3 20 2 37 -2 37 -5 0 -9 13 -9 28 0 15 -5 33
-11 39 -6 6 -11 27 -12 46 0 20 -4 34 -8 31 -4 -2 -10 6 -12 18 -2 13 -5 16
-6 8z"/>
<path d="M3792 290 c0 -14 4 -38 8 -55 7 -27 8 -27 8 -5 0 14 -4 39 -8 55 -7
27 -8 27 -8 5z"/>
<path d="M2878 274 c-13 -12 -9 -65 6 -79 12 -12 15 -11 20 8 3 12 6 31 6 42
0 16 -2 17 -9 6 -7 -11 -10 -9 -13 8 -1 13 -6 19 -10 15z"/>
<path d="M2961 254 c0 -11 3 -14 6 -6 3 7 2 16 -1 19 -3 4 -6 -2 -5 -13z"/>
<path d="M2491 244 c0 -11 3 -14 6 -6 3 7 2 16 -1 19 -3 4 -6 -2 -5 -13z"/>
<path d="M3721 257 c-1 -12 41 -108 45 -104 3 2 -7 28 -20 58 -14 30 -25 50
-25 46z"/>
<path d="M2583 190 c0 -25 2 -35 4 -22 2 12 2 32 0 45 -2 12 -4 2 -4 -23z"/>
<path d="M2951 214 c0 -11 3 -14 6 -6 3 7 2 16 -1 19 -3 4 -6 -2 -5 -13z"/>
<path d="M2501 184 c0 -11 3 -14 6 -6 3 7 2 16 -1 19 -3 4 -6 -2 -5 -13z"/>
<path d="M3812 180 c0 -14 2 -19 5 -12 2 6 2 18 0 25 -3 6 -5 1 -5 -13z"/>
<path d="M2781 185 c0 -5 6 -21 14 -35 8 -14 14 -20 14 -15 0 6 -6 21 -14 35
-8 14 -14 21 -14 15z"/>
<path d="M2936 164 c-4 -14 -5 -28 -3 -31 3 -2 8 8 11 23 4 14 5 28 3 31 -3 2
-8 -8 -11 -23z"/>
<path d="M2651 164 c0 -11 3 -14 6 -6 3 7 2 16 -1 19 -3 4 -6 -2 -5 -13z"/>
<path d="M3223 140 c0 -25 2 -35 4 -22 2 12 2 32 0 45 -2 12 -4 2 -4 -23z"/>
<path d="M3450 175 c0 -5 5 -17 10 -25 5 -8 10 -10 10 -5 0 6 -5 17 -10 25 -5
8 -10 11 -10 5z"/>
<path d="M3822 112 c-2 -31 -5 -41 -14 -36 -10 5 -10 4 -1 -6 19 -20 25 -7 20
41 l-4 44 -1 -43z"/>
<path d="M2592 120 c0 -14 2 -19 5 -12 2 6 2 18 0 25 -3 6 -5 1 -5 -13z"/>
<path d="M2660 136 c0 -17 33 -122 41 -130 4 -5 -1 22 -13 60 -19 65 -28 87
-28 70z"/>
<path d="M3436 125 c4 -8 11 -15 16 -15 6 0 5 6 -2 15 -7 8 -14 15 -16 15 -2
0 -1 -7 2 -15z"/>
<path d="M3770 134 c0 -6 7 -19 16 -30 14 -18 14 -18 3 6 -14 31 -19 36 -19
24z"/>
<path d="M2317 95 c-4 -22 -6 -53 -6 -70 1 -17 5 -3 10 30 10 67 6 102 -4 40z"/>
<path d="M3243 70 c0 -30 2 -43 4 -28 2 16 2 40 0 55 -2 16 -4 3 -4 -27z"/>
<path d="M3113 55 c0 -33 2 -45 4 -27 2 18 2 45 0 60 -2 15 -4 0 -4 -33z"/>
<path d="M2591 74 c0 -11 3 -14 6 -6 3 7 2 16 -1 19 -3 4 -6 -2 -5 -13z"/>
<path d="M2830 68 c0 -9 5 -20 10 -23 13 -8 13 5 0 25 -8 13 -10 13 -10 -2z"/>
<path d="M3600 46 c0 -2 8 -10 18 -17 15 -13 16 -12 3 4 -13 16 -21 21 -21 13z"/>
<path d="M2590 35 c0 -5 5 -17 10 -25 5 -8 10 -11 10 -5 0 6 -5 17 -10 25 -5
8 -10 11 -10 5z"/>
</g>
</svg>
